<svg width="18" height="22" viewBox="0 0 18 22" fill="none" xmlns="http://www.w3.org/2000/svg">
<path d="M17.0814 11.2905C17.1346 11.2567 17.1783 11.2099 17.2086 11.1547C17.2388 11.0994 17.2547 11.0374 17.2547 10.9744C17.2547 10.9114 17.2388 10.8494 17.2086 10.7942C17.1783 10.7389 17.1346 10.6922 17.0814 10.6583L1.17769 0.518668C1.12804 0.487408 1.06927 0.473892 1.01096 0.480325C0.952644 0.486759 0.898231 0.512762 0.856595 0.554094C0.814959 0.595425 0.788557 0.649645 0.781695 0.70791C0.774834 0.766175 0.787918 0.825045 0.818814 0.874918L6.94819 10.6324C7.01257 10.7349 7.04673 10.8534 7.04673 10.9744C7.04673 11.0954 7.01257 11.214 6.94819 11.3164L0.803438 21.0979C0.626063 21.3803 0.883688 21.6173 1.08956 21.486L17.0814 11.2905Z" fill="#0E2A18"/>
</svg>
