<svg width="50" height="50" viewBox="0 0 50 50" fill="none" xmlns="http://www.w3.org/2000/svg">
<g clip-path="url(#clip0_1_387)">
<path d="M48.9258 26.6444H41.424C41.2427 26.6444 41.0688 26.7165 40.9406 26.8447C40.8125 26.9729 40.7404 27.1467 40.7404 27.328C40.7404 31.3055 37.5046 34.5413 33.5271 34.5413C29.5497 34.5413 26.3139 31.3055 26.3139 27.328C26.3139 27.1467 26.2418 26.9729 26.1136 26.8447C25.9854 26.7165 25.8116 26.6444 25.6303 26.6444H18.1285C17.9472 26.6444 17.7733 26.7165 17.6451 26.8447C17.5169 26.9729 17.4449 27.1467 17.4449 27.328V29.8919C17.4449 30.0502 17.4999 30.2037 17.6005 30.326C17.701 30.4483 17.8409 30.532 17.9963 30.5626L20.3453 31.0258L21.5917 34.0342L20.258 36.0229C20.1698 36.1545 20.13 36.3125 20.1454 36.4701C20.1608 36.6277 20.2304 36.7751 20.3424 36.8871L23.9682 40.5129C24.0802 40.6248 24.2275 40.6945 24.3851 40.7098C24.5427 40.7252 24.7008 40.6854 24.8323 40.5973L26.8211 39.2636L29.8295 40.51L30.2927 42.8591C30.3233 43.0144 30.4069 43.1544 30.5293 43.2549C30.6516 43.3555 30.805 43.4105 30.9634 43.4104H36.0911C36.2495 43.4105 36.4029 43.3555 36.5252 43.2549C36.6476 43.1544 36.7312 43.0144 36.7618 42.8591L37.225 40.5101L40.2334 39.2637L42.2222 40.5974C42.3537 40.6855 42.5118 40.7253 42.6694 40.7099C42.827 40.6945 42.9743 40.6249 43.0863 40.513L46.7121 36.8872C46.8241 36.7753 46.8937 36.6279 46.9091 36.4703C46.9245 36.3127 46.8847 36.1546 46.7965 36.0231L45.4628 34.0344L46.7092 31.026L49.0582 30.5628C49.2136 30.5322 49.3535 30.4485 49.454 30.3262C49.5546 30.2039 49.6096 30.0504 49.6096 29.8921V27.3282C49.6096 27.1469 49.5375 26.973 49.4094 26.8449C49.2812 26.7167 49.1073 26.6446 48.926 26.6446L48.9258 26.6444ZM48.2422 29.33L46.0854 29.7552C45.9749 29.777 45.8715 29.8257 45.7844 29.897C45.6973 29.9684 45.6291 30.0601 45.586 30.1642L44.0595 33.849C44.0164 33.9531 43.9997 34.0661 44.0108 34.1782C44.0219 34.2903 44.0605 34.3979 44.1232 34.4914L45.3479 36.3176L42.5168 39.1486L40.6907 37.924C40.5972 37.8613 40.4896 37.8227 40.3775 37.8115C40.2655 37.8004 40.1524 37.8171 40.0483 37.8603L36.3635 39.3869C36.2594 39.43 36.1677 39.4981 36.0963 39.5852C36.025 39.6724 35.9762 39.7757 35.9545 39.8862L35.5292 42.0431H31.5254L31.1001 39.8861C31.0783 39.7757 31.0296 39.6723 30.9582 39.5852C30.8869 39.4981 30.7951 39.4299 30.6911 39.3868L27.0063 37.8603C26.9022 37.8171 26.7891 37.8004 26.6771 37.8115C26.565 37.8226 26.4574 37.8613 26.3639 37.924L24.5378 39.1486L21.7067 36.3176L22.9314 34.4915C22.9941 34.398 23.0328 34.2904 23.0439 34.1783C23.055 34.0662 23.0383 33.9532 22.9952 33.8491L21.4686 30.1643C21.4255 30.0602 21.3573 29.9684 21.2702 29.8971C21.1831 29.8257 21.0797 29.777 20.9692 29.7553L18.8124 29.3301V28.0117H24.9739C25.3235 32.4246 29.0263 35.9086 33.5274 35.9086C38.0286 35.9086 41.7313 32.4245 42.081 28.0117H48.2425V29.3301L48.2422 29.33ZM21.381 25.3843H24.931C25.6799 25.3843 26.2892 24.775 26.2892 24.0261V19.419H27.4156C27.9079 19.419 28.3381 19.1397 28.5385 18.6899C28.7387 18.2403 28.6586 17.7337 28.3294 17.3678L24.0696 12.6335C23.8335 12.371 23.509 12.2266 23.156 12.2266C22.8029 12.2266 22.4784 12.3711 22.2423 12.6336L17.9825 17.3679C17.6533 17.7338 17.5732 18.2404 17.7734 18.6902C17.9737 19.1398 18.404 19.4191 18.8963 19.4191H20.0228V24.0262C20.0228 24.7751 20.632 25.3844 21.381 25.3844V25.3843ZM19.2062 18.0519L23.156 13.6621L27.1058 18.0519H25.6056C25.4243 18.0519 25.2504 18.1239 25.1222 18.2521C24.994 18.3803 24.922 18.5541 24.922 18.7354V24.0171H21.3899V18.7354C21.3899 18.5541 21.3179 18.3803 21.1897 18.2521C21.0615 18.1239 20.8876 18.0519 20.7063 18.0519H19.2062ZM32.6134 6.4665L28.3536 11.2008C28.0244 11.5668 27.9443 12.0734 28.1446 12.523C28.3449 12.9727 28.7752 13.252 29.2674 13.252H30.3939V22.5191C28.8244 23.5452 27.7845 25.317 27.7845 27.328C27.7845 30.4945 30.3606 33.0707 33.5271 33.0707C36.6937 33.0707 39.2697 30.4945 39.2697 27.328C39.2697 25.317 38.2298 23.5453 36.6604 22.5191V13.252H37.7868C38.2792 13.252 38.7094 12.9726 38.9096 12.523C39.11 12.0733 39.0298 11.5666 38.7005 11.2007L34.4406 6.46631C34.2045 6.20391 33.88 6.05947 33.5271 6.05947C33.1741 6.05947 32.8495 6.2041 32.6134 6.4665ZM37.9025 27.328C37.9025 29.7407 35.9397 31.7035 33.5271 31.7035C31.1145 31.7035 29.1517 29.7407 29.1517 27.328C29.1517 24.9153 31.1145 22.9526 33.5271 22.9526C35.9398 22.9526 37.9025 24.9154 37.9025 27.328ZM37.4769 11.8849H35.9768C35.7955 11.8849 35.6216 11.9569 35.4934 12.0851C35.3652 12.2133 35.2932 12.3872 35.2932 12.5685V21.8645C34.7364 21.6841 34.1432 21.5854 33.5271 21.5854C32.9111 21.5854 32.3179 21.6841 31.7611 21.8645V12.5685C31.7611 12.3872 31.6891 12.2133 31.5609 12.0851C31.4327 11.9569 31.2588 11.8849 31.0775 11.8849H29.5773L33.5271 7.49512L37.4769 11.8849ZM39.6386 7.58311H40.765V24.0261C40.765 24.775 41.3743 25.3843 42.1232 25.3843H45.6732C46.4222 25.3843 47.0314 24.775 47.0314 24.0261V7.58311H48.1579C48.6502 7.58311 49.0804 7.30381 49.2807 6.8542C49.4811 6.40449 49.4009 5.89775 49.0716 5.53184L44.8117 0.797461C44.5756 0.535059 44.2511 0.390625 43.8981 0.390625C43.5452 0.390625 43.2206 0.535156 42.9845 0.797559L38.7247 5.53184C38.3954 5.89775 38.3153 6.40449 38.5156 6.8542C38.7159 7.30381 39.1462 7.58311 39.6384 7.58311H39.6386ZM43.8983 1.82617L47.848 6.21592H46.3479C46.1666 6.21592 45.9928 6.28794 45.8646 6.41614C45.7364 6.54434 45.6644 6.71821 45.6644 6.89951V24.0171H42.1323V6.89951C42.1323 6.71821 42.0603 6.54434 41.9321 6.41614C41.8039 6.28794 41.63 6.21592 41.4487 6.21592H39.9486L43.8983 1.82617ZM17.9838 38.816C16.8029 37.7295 15.3884 36.9284 13.8493 36.4743C15.2879 35.5104 16.237 33.8702 16.237 32.0123C16.237 29.0524 13.829 26.6444 10.8691 26.6444C7.90928 26.6444 5.50127 29.0524 5.50127 32.0123C5.50127 33.8702 6.45039 35.5104 7.88887 36.4743C6.34975 36.9284 4.93532 37.7295 3.75439 38.816C1.82158 40.592 0.62793 43.0045 0.39336 45.6091C0.391518 45.6295 0.390606 45.6499 0.390625 45.6704V48.9259C0.390625 49.1072 0.462647 49.2811 0.590845 49.4093C0.719044 49.5375 0.892919 49.6095 1.07422 49.6095H20.6641C20.8454 49.6095 21.0192 49.5375 21.1474 49.4093C21.2756 49.2811 21.3477 49.1072 21.3477 48.9259V45.6704C21.3477 45.65 21.3468 45.6295 21.3449 45.6091C21.1103 43.0045 19.9165 40.592 17.9838 38.816ZM6.86846 32.0123C6.86846 29.8063 8.66309 28.0116 10.8691 28.0116C13.0752 28.0116 14.8698 29.8062 14.8698 32.0123C14.8698 34.2184 13.0752 36.013 10.8691 36.013C8.66309 36.013 6.86846 34.2183 6.86846 32.0123ZM11.9027 44.4825L10.8755 45.9528L9.84824 44.4825L10.5546 37.4192C10.6592 37.4157 10.7636 37.4119 10.869 37.4119C10.9788 37.4119 11.0876 37.4158 11.1964 37.4195L11.9027 44.4825ZM19.9805 48.2423H1.75781V45.7017C2.14512 41.5521 5.20576 38.3017 9.16572 37.5683L8.4627 44.5985C8.44642 44.7611 8.48894 44.9241 8.58252 45.058L10.3151 47.5381C10.3781 47.6283 10.462 47.7019 10.5595 47.7527C10.6571 47.8036 10.7655 47.8301 10.8755 47.8301C10.9855 47.8301 11.0939 47.8036 11.1914 47.7527C11.289 47.7019 11.3728 47.6283 11.4358 47.5381L13.1685 45.058C13.2621 44.9241 13.3046 44.761 13.2883 44.5984L12.5854 37.5704C16.5392 38.3085 19.5936 41.5566 19.9805 45.7017V48.2423ZM10.1855 24.9257V16.7575C10.1855 16.5368 10.2921 16.3298 10.4716 16.2015L30.4219 1.93906L29.9312 1.93672C29.8415 1.93651 29.7526 1.91863 29.6698 1.88409C29.5869 1.84954 29.5117 1.79902 29.4483 1.73539C29.385 1.67177 29.3348 1.5963 29.3007 1.51328C29.2665 1.43027 29.249 1.34133 29.2492 1.25156C29.2494 1.16179 29.2673 1.07294 29.3019 0.990081C29.3364 0.907223 29.3869 0.831979 29.4505 0.768646C29.5142 0.705314 29.5896 0.655133 29.6727 0.620969C29.7557 0.586805 29.8446 0.569326 29.9344 0.569531H29.9377L32.5427 0.581836C32.6516 0.582309 32.7588 0.608794 32.8553 0.659087C32.9519 0.70938 33.0351 0.782023 33.0979 0.870966C33.1607 0.959908 33.2014 1.06257 33.2165 1.17041C33.2316 1.27825 33.2207 1.38814 33.1848 1.49092L32.3122 3.9877C32.2831 4.07308 32.2374 4.15186 32.1777 4.21949C32.118 4.28713 32.0455 4.34228 31.9644 4.38176C31.8833 4.42125 31.7952 4.44429 31.7051 4.44956C31.615 4.45483 31.5248 4.44222 31.4397 4.41246C31.3545 4.38271 31.2761 4.33639 31.2089 4.27618C31.1417 4.21597 31.0871 4.14306 31.0483 4.06165C31.0094 3.98024 30.987 3.89195 30.9825 3.80185C30.9779 3.71176 30.9912 3.62165 31.0216 3.53672L31.1827 3.07568L11.5527 17.1092V24.9257C11.5527 25.107 11.4807 25.2809 11.3525 25.4091C11.2243 25.5373 11.0504 25.6093 10.8691 25.6093C10.6878 25.6093 10.514 25.5373 10.3858 25.4091C10.2576 25.2809 10.1855 25.107 10.1855 24.9257ZM36.1983 25.2138C36.2618 25.2772 36.3122 25.3526 36.3465 25.4355C36.3809 25.5185 36.3986 25.6073 36.3986 25.6971C36.3986 25.7869 36.3809 25.8758 36.3465 25.9587C36.3122 26.0416 36.2618 26.117 36.1983 26.1805L32.9365 29.4423C32.8624 29.5164 32.7722 29.5725 32.6729 29.6062C32.5736 29.6399 32.4679 29.6503 32.364 29.6366C32.26 29.6229 32.1606 29.5855 32.0734 29.5272C31.9863 29.469 31.9137 29.3915 31.8612 29.3007L30.7475 27.3715C30.7019 27.2937 30.6721 27.2077 30.6599 27.1184C30.6477 27.029 30.6533 26.9382 30.6763 26.851C30.6993 26.7639 30.7394 26.6821 30.7942 26.6105C30.8489 26.5389 30.9173 26.4788 30.9954 26.4338C31.0735 26.3887 31.1597 26.3595 31.2491 26.3479C31.3385 26.3363 31.4293 26.3424 31.5163 26.366C31.6033 26.3897 31.6848 26.4303 31.756 26.4855C31.8273 26.5407 31.8869 26.6095 31.9314 26.6879L32.5998 27.8455L35.2316 25.2137C35.3598 25.0855 35.5337 25.0135 35.715 25.0135C35.8963 25.0135 36.0701 25.0855 36.1983 25.2137V25.2138Z" fill="#0E2A18"/>
</g>
<defs>
<clipPath id="clip0_1_387">
<rect width="50" height="50" fill="white"/>
</clipPath>
</defs>
</svg>
