<svg width="50" height="50" viewBox="0 0 50 50" fill="none" xmlns="http://www.w3.org/2000/svg">
<g clip-path="url(#clip0_1_410)">
<path d="M8.30451 16.3749C8.49698 16.487 8.7156 16.5462 8.9383 16.5467C9.15666 16.5467 9.37521 16.4892 9.57453 16.374L12.7147 14.5612C13.1128 14.3313 13.3504 13.9203 13.3504 13.4616C13.3504 13.0031 13.1127 12.592 12.7147 12.3622L9.57453 10.5493C9.17648 10.3195 8.70168 10.3194 8.30451 10.5486C7.90744 10.7779 7.67033 11.1892 7.67033 11.6489V15.2747C7.67023 15.7343 7.90734 16.1456 8.30451 16.3749ZM8.84211 11.6488C8.84211 11.6345 8.84211 11.5912 8.89045 11.5633C8.90494 11.5546 8.92149 11.5499 8.9384 11.5496C8.955 11.5496 8.9718 11.5545 8.98859 11.5642L12.1287 13.3771C12.141 13.3842 12.1786 13.4058 12.1786 13.4616C12.1786 13.5175 12.1411 13.5391 12.1287 13.5462L8.98859 15.3591C8.974 15.3685 8.95703 15.3736 8.93965 15.3738C8.92227 15.374 8.90521 15.3692 8.89045 15.36C8.84211 15.3321 8.84211 15.2888 8.84211 15.2745V11.6488ZM3.51574 20.0011H16.2342C17.6342 20.0011 18.7733 18.862 18.7733 17.462V9.46135C18.7733 8.06135 17.6342 6.92229 16.2342 6.92229H3.51574C2.11574 6.92229 0.976679 8.06135 0.976679 9.46135V17.462C0.976776 18.862 2.11574 20.0011 3.51574 20.0011ZM2.14865 9.46135C2.14865 8.70754 2.76193 8.09416 3.51584 8.09416H16.2343C16.9882 8.09416 17.6015 8.70745 17.6015 9.46135V17.462C17.6015 18.2158 16.9882 18.8292 16.2343 18.8292H3.51574C2.76193 18.8292 2.14855 18.2159 2.14855 17.462V9.46135H2.14865ZM31.6515 27.8513C31.6183 27.7276 31.5456 27.6181 31.4443 27.5397C31.343 27.4612 31.2188 27.4182 31.0907 27.417L28.4222 27.3935L26.4382 19.989C26.2945 19.4523 25.9489 19.003 25.4653 18.7238C24.9817 18.4446 24.4197 18.3698 23.8829 18.5138C23.3462 18.6576 22.8969 19.0031 22.6177 19.4867C22.3385 19.9703 22.2639 20.5323 22.4077 21.069L22.6364 21.9226C21.7608 23.5392 18.6955 28.0599 10.8558 30.5822C9.41935 31.0443 7.92082 31.4195 6.4715 31.7823C5.74055 31.9654 4.98469 32.1546 4.2425 32.3534C3.09279 32.6615 2.13801 33.4047 1.55422 34.4461C0.968183 35.4913 0.822187 36.7265 1.14308 37.9238C1.70051 40.0042 3.48098 41.3517 5.45891 41.3515C5.8385 41.3515 6.2257 41.3018 6.61252 41.1983C6.70217 41.1742 6.79211 41.1494 6.88195 41.1249L10.7862 47.8873C11.2071 48.6162 11.9731 49.0241 12.7597 49.024C13.1577 49.0242 13.5486 48.9192 13.8931 48.7198C14.4176 48.4169 14.7933 47.9264 14.9509 47.3383C15.1084 46.7503 15.0284 46.1375 14.7256 45.613L11.406 39.8633C12.0114 39.7051 12.6192 39.5559 13.2252 39.4253C21.2763 37.6898 26.1908 40.0723 27.7574 41.0345L27.9862 41.888C28.2357 42.8191 29.0808 43.4347 30.0021 43.4346C30.1802 43.4346 30.3613 43.4115 30.5414 43.3634C31.6527 43.0656 32.3145 41.9193 32.0166 40.8081L30.0326 33.4036L32.3319 32.0489C32.4422 31.9838 32.5282 31.8844 32.5767 31.7659C32.6252 31.6473 32.6336 31.5161 32.6004 31.3924L31.6515 27.8513ZM6.3091 40.066C4.54133 40.54 2.76926 39.4654 2.27492 37.6203C2.03361 36.7198 2.14064 35.796 2.57629 35.019C3.00432 34.2556 3.70373 33.7108 4.54572 33.4853C5.27853 33.2889 6.02971 33.1008 6.75607 32.919C8.02941 32.6002 9.34025 32.2718 10.6272 31.8809L12.3779 38.4146C11.0683 38.7195 9.76926 39.0904 8.50744 39.4509C7.78703 39.6569 7.04221 39.8697 6.3091 40.066ZM13.7106 46.1987C13.857 46.4521 13.8953 46.749 13.8188 47.0348C13.7422 47.3205 13.5605 47.5584 13.3071 47.7047C13.0536 47.851 12.7569 47.8896 12.4709 47.8129C12.1852 47.7364 11.9473 47.5545 11.801 47.3012L8.04767 40.8003C8.31017 40.7259 8.5716 40.6514 8.82941 40.5778C9.29357 40.4451 9.7632 40.3114 10.2357 40.1798L13.7106 46.1987ZM13.5248 38.1675L11.7441 31.5216C16.7164 29.8157 20.8172 26.8927 23.0584 23.4975L27.3354 39.4594C23.6968 37.6397 18.684 37.1586 13.5248 38.1675ZM30.2381 42.2313C29.7508 42.3619 29.2486 42.0717 29.118 41.5847L23.5396 20.7656C23.4768 20.5313 23.5098 20.2852 23.6325 20.0726C23.7552 19.8601 23.9519 19.7084 24.1862 19.6456C24.2629 19.625 24.3419 19.6146 24.4213 19.6146C24.5799 19.6146 24.737 19.6566 24.8792 19.7386C25.0917 19.8613 25.2434 20.0579 25.3062 20.2922L30.8847 41.1113C31.0152 41.5984 30.7251 42.1008 30.2381 42.2313ZM29.7178 32.2289L28.7368 28.5681L30.6348 28.5849L31.353 31.2654L29.7178 32.2289ZM34.5894 21.4546L32.5166 25.0448C32.4782 25.1114 32.427 25.1698 32.3659 25.2167C32.3049 25.2636 32.2352 25.2979 32.1609 25.3179C32.0865 25.3378 32.009 25.3428 31.9327 25.3328C31.8564 25.3227 31.7829 25.2977 31.7162 25.2592C31.5817 25.1815 31.4835 25.0535 31.4432 24.9034C31.403 24.7533 31.4241 24.5934 31.5018 24.4588L33.5745 20.8687C33.6528 20.7352 33.7807 20.6381 33.9302 20.5985C34.0798 20.559 34.239 20.5802 34.373 20.6576C34.507 20.7349 34.6049 20.8622 34.6455 21.0115C34.686 21.1608 34.6658 21.3201 34.5894 21.4546ZM37.757 36.4781L34.1668 34.4052C34.0996 34.367 34.0407 34.3159 33.9933 34.2548C33.946 34.1938 33.9112 34.1239 33.8909 34.0494C33.8707 33.9748 33.8654 33.8969 33.8754 33.8203C33.8853 33.7437 33.9103 33.6698 33.949 33.6029C33.9876 33.5359 34.0391 33.4773 34.1005 33.4304C34.1619 33.3834 34.2319 33.3491 34.3067 33.3294C34.3814 33.3096 34.4592 33.3048 34.5358 33.3153C34.6124 33.3258 34.6861 33.3513 34.7528 33.3904L38.3429 35.4632C38.4101 35.5014 38.469 35.5525 38.5164 35.6136C38.5637 35.6746 38.5985 35.7445 38.6188 35.819C38.639 35.8936 38.6443 35.9715 38.6343 36.0481C38.6244 36.1247 38.5994 36.1986 38.5607 36.2655C38.5221 36.3325 38.4706 36.3911 38.4092 36.438C38.3478 36.485 38.2778 36.5193 38.2031 36.539C38.1283 36.5588 38.0505 36.5636 37.9739 36.5531C37.8974 36.5426 37.8236 36.5171 37.757 36.4781ZM34.9771 28.2513L38.9814 27.1783C39.1315 27.1381 39.2914 27.1592 39.426 27.2369C39.5605 27.3146 39.6587 27.4426 39.6989 27.5927C39.7189 27.667 39.7239 27.7445 39.7139 27.8208C39.7039 27.8971 39.6789 27.9707 39.6404 28.0373C39.6019 28.104 39.5507 28.1624 39.4897 28.2092C39.4286 28.256 39.3589 28.2904 39.2846 28.3103L35.2803 29.3833C35.1302 29.4235 34.9703 29.4024 34.8357 29.3247C34.7011 29.247 34.6029 29.119 34.5626 28.969C34.5224 28.8188 34.5435 28.6589 34.6212 28.5243C34.699 28.3897 34.827 28.2915 34.9771 28.2513ZM45.9414 0.976196H31.6724C29.9729 0.976196 28.5902 2.35891 28.5902 4.05842V11.315C28.5902 13.0145 29.9729 14.3972 31.6724 14.3972H33.1981V17.7449C33.1981 17.856 33.2296 17.9648 33.289 18.0586C33.3485 18.1524 33.4334 18.2274 33.5338 18.2748C33.6342 18.3223 33.746 18.3402 33.8562 18.3265C33.9665 18.3128 34.0705 18.268 34.1563 18.1975L38.7772 14.3972H45.9415C47.641 14.3972 49.0237 13.0145 49.0237 11.315V4.05842C49.0236 2.35891 47.6409 0.976196 45.9414 0.976196ZM47.8517 11.3149C47.8517 12.3682 46.9947 13.2252 45.9413 13.2252H38.567C38.4313 13.2252 38.2997 13.2724 38.1948 13.3586L34.3699 16.5043V13.8112C34.3699 13.6558 34.3082 13.5067 34.1983 13.3968C34.0884 13.287 33.9394 13.2252 33.784 13.2252H31.6724C30.6191 13.2252 29.762 12.3683 29.762 11.3149V4.05842C29.762 3.0051 30.619 2.14807 31.6724 2.14807H45.9414C46.9947 2.14807 47.8518 3.005 47.8518 4.05842V11.3149H47.8517ZM45.4529 4.94006C45.4529 5.09546 45.3911 5.2445 45.2812 5.35438C45.1713 5.46427 45.0223 5.526 44.8669 5.526H32.7469C32.5915 5.526 32.4425 5.46427 32.3326 5.35438C32.2227 5.2445 32.161 5.09546 32.161 4.94006C32.161 4.78466 32.2227 4.63563 32.3326 4.52574C32.4425 4.41586 32.5915 4.35413 32.7469 4.35413H44.8669C45.0223 4.35413 45.1713 4.41586 45.2812 4.52574C45.3911 4.63563 45.4529 4.78466 45.4529 4.94006ZM45.4529 10.4331C45.4529 10.5885 45.3911 10.7376 45.2812 10.8475C45.1713 10.9573 45.0223 11.0191 44.8669 11.0191H38.567C38.4116 11.0191 38.2626 10.9573 38.1527 10.8475C38.0428 10.7376 37.9811 10.5885 37.9811 10.4331C37.9811 10.2777 38.0428 10.1287 38.1527 10.0188C38.2626 9.90893 38.4116 9.84719 38.567 9.84719H44.8669C45.0223 9.84719 45.1713 9.90893 45.2812 10.0188C45.3911 10.1287 45.4529 10.2777 45.4529 10.4331ZM45.4529 7.68665C45.4529 7.84205 45.3911 7.99108 45.2812 8.10097C45.1713 8.21085 45.0223 8.27258 44.8669 8.27258H32.7469C32.5915 8.27258 32.4425 8.21085 32.3326 8.10097C32.2227 7.99108 32.161 7.84205 32.161 7.68665C32.161 7.53124 32.2227 7.38221 32.3326 7.27233C32.4425 7.16244 32.5915 7.10071 32.7469 7.10071H44.8669C45.0223 7.10071 45.1713 7.16244 45.2812 7.27233C45.3911 7.38221 45.4529 7.53124 45.4529 7.68665ZM45.5221 37.6871C44.5016 37.6871 43.5425 38.1701 42.8865 38.9715C42.2305 38.1701 41.2715 37.6871 40.251 37.6871C38.3202 37.6871 36.7494 39.3722 36.7494 41.4435C36.7494 43.1757 38.8012 45.3843 41.087 47.685C41.4575 48.0578 41.7775 48.3799 42.0154 48.6374C42.242 48.8825 42.5595 49.0231 42.8866 49.0231C43.2138 49.023 43.5313 48.8824 43.7575 48.6374C43.9955 48.3799 44.3154 48.0578 44.686 47.685C46.9718 45.3843 49.0236 43.1758 49.0236 41.4435C49.0236 39.3722 47.4528 37.6871 45.5221 37.6871ZM43.8547 46.8591C43.4762 47.24 43.1493 47.5691 42.8969 47.8421C42.891 47.8484 42.8872 47.8505 42.887 47.8511C42.8828 47.8488 42.879 47.8457 42.876 47.842C42.6236 47.569 42.2967 47.24 41.9182 46.859C40.5213 45.4531 37.9212 42.8361 37.9212 41.4435C37.9212 40.0184 38.9663 38.859 40.2509 38.859C41.1383 38.859 41.962 39.4327 42.3494 40.3206C42.395 40.4252 42.4701 40.5141 42.5655 40.5766C42.6609 40.6391 42.7725 40.6724 42.8865 40.6724C43.0006 40.6724 43.1122 40.6391 43.2076 40.5766C43.303 40.5141 43.3781 40.4252 43.4236 40.3206C43.8111 39.4327 44.6347 38.859 45.5222 38.859C46.8068 38.859 47.8518 40.0184 47.8518 41.4435C47.8517 42.8361 45.2516 45.4531 43.8547 46.8591Z" fill="#0E2A18"/>
</g>
<defs>
<clipPath id="clip0_1_410">
<rect width="50" height="50" fill="white"/>
</clipPath>
</defs>
</svg>
