<svg width="50" height="50" viewBox="0 0 50 50" fill="none" xmlns="http://www.w3.org/2000/svg">
<path d="M45.8935 4.48727C45.9209 4.29472 45.8707 4.09917 45.754 3.94363C45.6372 3.78809 45.4634 3.6853 45.2709 3.65787L38.7369 2.72434C38.6413 2.7103 38.544 2.71528 38.4504 2.73898C38.3567 2.76268 38.2687 2.80464 38.1914 2.86245C38.114 2.92026 38.0488 2.99277 37.9996 3.07584C37.9503 3.1589 37.9179 3.25088 37.9043 3.34649C37.8907 3.44209 37.8961 3.53945 37.9202 3.63296C37.9443 3.72647 37.9867 3.81431 38.0448 3.89141C38.103 3.96852 38.1758 4.03338 38.259 4.08228C38.3423 4.13117 38.4344 4.16314 38.5301 4.17634L43.3114 4.85907L35.3254 10.8482C35.2002 10.9421 35.0483 10.9934 34.8918 10.9947C34.7353 10.996 34.5825 10.9473 34.4557 10.8555L25.4504 4.334C25.1128 4.08951 24.7128 3.94592 24.2968 3.91995C23.8809 3.89399 23.4661 3.98671 23.1008 4.18734L5.21476 14.0074C5.13031 14.0537 5.0558 14.1162 4.9955 14.1913C4.9352 14.2665 4.89028 14.3527 4.86331 14.4452C4.83635 14.5377 4.82786 14.6345 4.83833 14.7303C4.84881 14.8261 4.87804 14.9188 4.92436 15.0033C4.97069 15.0877 5.03319 15.1622 5.1083 15.2225C5.18342 15.2828 5.26968 15.3278 5.36215 15.3547C5.45463 15.3817 5.55151 15.3902 5.64726 15.3797C5.74302 15.3692 5.83577 15.34 5.92023 15.2937L23.8062 5.47434C23.928 5.40739 24.0662 5.3764 24.2048 5.38497C24.3435 5.39354 24.4769 5.44131 24.5894 5.52274L33.5948 12.0443C33.9752 12.3198 34.4339 12.4663 34.9037 12.4624C35.3735 12.4584 35.8296 12.3042 36.2054 12.0223L44.1914 6.03314L43.508 10.8145C43.4815 11.0066 43.5321 11.2014 43.6489 11.3562C43.7657 11.5111 43.939 11.6134 44.131 11.6407C44.323 11.6681 44.518 11.6182 44.6734 11.5021C44.8287 11.3861 44.9318 11.2132 44.96 11.0213L45.8935 4.48727Z" fill="#0E2A18"/>
<path fill-rule="evenodd" clip-rule="evenodd" d="M20.6 14.2831C20.6 13.6997 20.8318 13.1401 21.2444 12.7275C21.6569 12.3149 22.2165 12.0831 22.8 12.0831H25.7333C26.3168 12.0831 26.8764 12.3149 27.289 12.7275C27.7015 13.1401 27.9333 13.6997 27.9333 14.2831V25.2831C27.9333 25.8666 27.7015 26.4262 27.289 26.8388C26.8764 27.2513 26.3168 27.4831 25.7333 27.4831H22.8C22.2165 27.4831 21.6569 27.2513 21.2444 26.8388C20.8318 26.4262 20.6 25.8666 20.6 25.2831V14.2831ZM22.8 13.5498C22.6055 13.5498 22.419 13.6271 22.2815 13.7646C22.1439 13.9021 22.0667 14.0886 22.0667 14.2831V25.2831C22.0667 25.4776 22.1439 25.6641 22.2815 25.8017C22.419 25.9392 22.6055 26.0165 22.8 26.0165H25.7333C25.9278 26.0165 26.1144 25.9392 26.2519 25.8017C26.3894 25.6641 26.4667 25.4776 26.4667 25.2831V14.2831C26.4667 14.0886 26.3894 13.9021 26.2519 13.7646C26.1144 13.6271 25.9278 13.5498 25.7333 13.5498H22.8ZM13.2667 15.7498C12.6832 15.7498 12.1236 15.9816 11.711 16.3942C11.2985 16.8067 11.0667 17.3663 11.0667 17.9498V25.2831C11.0667 25.8666 11.2985 26.4262 11.711 26.8388C12.1236 27.2513 12.6832 27.4831 13.2667 27.4831H16.2C16.7835 27.4831 17.3431 27.2513 17.7556 26.8388C18.1682 26.4262 18.4 25.8666 18.4 25.2831V17.9498C18.4 17.3663 18.1682 16.8067 17.7556 16.3942C17.3431 15.9816 16.7835 15.7498 16.2 15.7498H13.2667ZM12.5333 17.9498C12.5333 17.7553 12.6106 17.5688 12.7481 17.4313C12.8856 17.2937 13.0722 17.2165 13.2667 17.2165H16.2C16.3945 17.2165 16.581 17.2937 16.7185 17.4313C16.8561 17.5688 16.9333 17.7553 16.9333 17.9498V25.2831C16.9333 25.4776 16.8561 25.6641 16.7185 25.8017C16.581 25.9392 16.3945 26.0165 16.2 26.0165H13.2667C13.0722 26.0165 12.8856 25.9392 12.7481 25.8017C12.6106 25.6641 12.5333 25.4776 12.5333 25.2831V17.9498ZM7.03333 27.4831C4.8546 27.4831 3 29.1441 3 31.2965V40.5365C3 42.6895 4.8546 44.3498 7.03333 44.3498C8.17367 44.3498 9.22527 43.8951 9.96887 43.153C10.0072 43.1749 10.0475 43.1933 10.0891 43.208L19.4501 46.5175C20.4813 47.0217 21.614 47.2838 22.7619 47.2839H25.605C27.233 47.2839 28.8419 46.9348 30.3247 46.2609L44.5881 41.0652C45.0944 40.8484 45.5244 40.4853 45.823 40.0224C46.1112 39.5751 46.2645 39.0544 46.2667 38.522V38.5117C46.2618 38.0795 46.1575 37.6543 45.9619 37.2689C45.7663 36.8834 45.4847 36.5482 45.1388 36.289C44.7991 36.0362 44.4062 35.8643 43.9899 35.7865C43.5737 35.7088 43.1452 35.7271 42.7371 35.8402L33.3277 37.3949C33.6093 36.9695 33.8 36.4767 33.8 35.9172V35.9106C33.7896 35.5336 33.7244 35.1601 33.6064 34.8018C33.4913 34.4469 33.294 34.0061 32.9633 33.7055C32.4376 33.2337 31.7541 32.9759 31.0478 32.9831H26.8429L24.0723 32.9098H24.0525C23.8574 32.91 23.6641 32.8713 23.4841 32.796C23.304 32.7207 23.1408 32.6103 23.0039 32.4713C22.1302 31.5888 21.0904 30.8882 19.9446 30.4098C18.7987 29.9313 17.5694 29.6846 16.3276 29.6839H10.6912C10.0415 28.3683 8.62393 27.4831 7.03333 27.4831ZM31.05 39.2165C31.0804 39.2167 31.1108 39.215 31.1409 39.2113C31.2114 39.2201 31.2828 39.2187 31.3529 39.2069L43.018 37.2797C43.0488 37.2746 43.0781 37.268 43.1082 37.2592C43.3033 37.2009 43.5093 37.1892 43.7097 37.2248C43.9102 37.2605 44.0995 37.3426 44.2625 37.4645C44.4267 37.5884 44.5605 37.7481 44.6536 37.9315C44.7468 38.1148 44.7968 38.3171 44.8 38.5227C44.7982 38.7733 44.7252 39.0182 44.5895 39.2289C44.4583 39.4335 44.2742 39.5956 44.0571 39.6983L29.796 44.8925C29.7777 44.8991 29.7593 44.9071 29.7417 44.9145C28.4438 45.5084 27.0332 45.8161 25.6057 45.8165H22.7619C21.8248 45.8166 20.9004 45.6 20.061 45.1836C20.0346 45.1705 20.0074 45.159 19.9796 45.1491L10.8012 41.9049C10.9773 41.4702 11.0674 41.0055 11.0667 40.5365V31.2965C11.0667 31.2473 11.0659 31.1989 11.0637 31.1498H16.3269C18.4396 31.1498 20.4665 31.9961 21.9625 33.5038C22.5129 34.0585 23.2608 34.3723 24.0423 34.3765L25.913 34.4263C25.9741 34.4422 26.0369 34.4501 26.1 34.4498H31.0551C31.4093 34.4476 31.7401 34.5759 31.9762 34.7908C32.0239 34.8341 32.1229 34.9822 32.2109 35.2535C32.2923 35.5058 32.3311 35.761 32.3333 35.9201C32.3326 36.1915 32.2145 36.4848 31.9205 36.8258C31.6557 37.1338 31.2817 37.4389 30.8271 37.7498H25C24.8055 37.7498 24.619 37.8271 24.4815 37.9646C24.3439 38.1021 24.2667 38.2886 24.2667 38.4831C24.2667 38.6776 24.3439 38.8641 24.4815 39.0017C24.619 39.1392 24.8055 39.2165 25 39.2165H31.05ZM4.46667 31.2965C4.46667 30.0476 5.56667 28.9498 7.03333 28.9498C8.5 28.9498 9.6 30.0476 9.6 31.2965V40.5365C9.6 41.7861 8.5 42.8831 7.03333 42.8831C5.56667 42.8831 4.46667 41.7861 4.46667 40.5365V31.2965ZM32.3333 17.2165C31.7499 17.2165 31.1903 17.4482 30.7777 17.8608C30.3651 18.2734 30.1333 18.833 30.1333 19.4165V25.2831C30.1333 25.8666 30.3651 26.4262 30.7777 26.8388C31.1903 27.2513 31.7499 27.4831 32.3333 27.4831H35.2667C35.8501 27.4831 36.4097 27.2513 36.8223 26.8388C37.2349 26.4262 37.4667 25.8666 37.4667 25.2831V19.4165C37.4667 18.833 37.2349 18.2734 36.8223 17.8608C36.4097 17.4482 35.8501 17.2165 35.2667 17.2165H32.3333ZM31.6 19.4165C31.6 19.222 31.6773 19.0354 31.8148 18.8979C31.9523 18.7604 32.1388 18.6831 32.3333 18.6831H35.2667C35.4612 18.6831 35.6477 18.7604 35.7852 18.8979C35.9227 19.0354 36 19.222 36 19.4165V25.2831C36 25.4776 35.9227 25.6641 35.7852 25.8017C35.6477 25.9392 35.4612 26.0165 35.2667 26.0165H32.3333C32.1388 26.0165 31.9523 25.9392 31.8148 25.8017C31.6773 25.6641 31.6 25.4776 31.6 25.2831V19.4165ZM39.6667 17.9498C39.6667 17.3663 39.8985 16.8067 40.311 16.3942C40.7236 15.9816 41.2832 15.7498 41.8667 15.7498H44.8C45.3835 15.7498 45.9431 15.9816 46.3556 16.3942C46.7682 16.8067 47 17.3663 47 17.9498V25.2831C47 25.8666 46.7682 26.4262 46.3556 26.8388C45.9431 27.2513 45.3835 27.4831 44.8 27.4831H41.8667C41.2832 27.4831 40.7236 27.2513 40.311 26.8388C39.8985 26.4262 39.6667 25.8666 39.6667 25.2831V17.9498ZM41.8667 17.2165C41.6722 17.2165 41.4856 17.2937 41.3481 17.4313C41.2106 17.5688 41.1333 17.7553 41.1333 17.9498V25.2831C41.1333 25.4776 41.2106 25.6641 41.3481 25.8017C41.4856 25.9392 41.6722 26.0165 41.8667 26.0165H44.8C44.9945 26.0165 45.181 25.9392 45.3185 25.8017C45.4561 25.6641 45.5333 25.4776 45.5333 25.2831V17.9498C45.5333 17.7553 45.4561 17.5688 45.3185 17.4313C45.181 17.2937 44.9945 17.2165 44.8 17.2165H41.8667Z" fill="#0E2A18"/>
</svg>
