<svg width="23" height="23" viewBox="0 0 23 23" fill="none" xmlns="http://www.w3.org/2000/svg">
<path d="M15.5978 13.5311L12.391 11.126V6.22674C12.391 5.73412 11.9928 5.33594 11.5002 5.33594C11.0076 5.33594 10.6094 5.73412 10.6094 6.22674V11.5715C10.6094 11.852 10.7412 12.1166 10.9657 12.2841L14.5288 14.9565C14.6826 15.0723 14.8699 15.1348 15.0624 15.1346C15.3341 15.1346 15.6013 15.0126 15.7759 14.7774C16.0717 14.3845 15.9916 13.826 15.5978 13.5311Z" fill="#0E2A18"/>
<path d="M11.5 0C5.15851 0 0 5.15851 0 11.5C0 17.8415 5.15851 23 11.5 23C17.8415 23 23 17.8415 23 11.5C23 5.15851 17.8415 0 11.5 0ZM11.5 21.2184C6.14194 21.2184 1.78156 16.8581 1.78156 11.5C1.78156 6.14194 6.14194 1.78156 11.5 1.78156C16.859 1.78156 21.2184 6.14194 21.2184 11.5C21.2184 16.8581 16.8581 21.2184 11.5 21.2184Z" fill="#0E2A18"/>
</svg>
