<svg width="20" height="20" viewBox="0 0 20 20" fill="none" xmlns="http://www.w3.org/2000/svg">
<g clip-path="url(#clip0_1_878)">
<path d="M15.0781 8.9834C15.5096 8.9834 15.8594 8.63362 15.8594 8.20215C15.8594 7.77068 15.5096 7.4209 15.0781 7.4209C14.6467 7.4209 14.2969 7.77068 14.2969 8.20215C14.2969 8.63362 14.6467 8.9834 15.0781 8.9834Z" fill="#0E2A18"/>
<path d="M16.875 1.56152H15.8594V0.780273C15.8594 0.348789 15.5096 -0.000976562 15.0781 -0.000976562C14.6466 -0.000976562 14.2969 0.348789 14.2969 0.780273V1.56152H10.7422V0.780273C10.7422 0.348789 10.3924 -0.000976562 9.96094 -0.000976562C9.52945 -0.000976562 9.17969 0.348789 9.17969 0.780273V1.56152H5.66406V0.780273C5.66406 0.348789 5.3143 -0.000976562 4.88281 -0.000976562C4.45133 -0.000976562 4.10156 0.348789 4.10156 0.780273V1.56152H3.125C1.40188 1.56152 0 2.9634 0 4.68652V16.874C0 18.5971 1.40188 19.999 3.125 19.999H9.10156C9.53305 19.999 9.88281 19.6493 9.88281 19.2178C9.88281 18.7863 9.53305 18.4365 9.10156 18.4365H3.125C2.26344 18.4365 1.5625 17.7356 1.5625 16.874V4.68652C1.5625 3.82496 2.26344 3.12402 3.125 3.12402H4.10156V3.90527C4.10156 4.33676 4.45133 4.68652 4.88281 4.68652C5.3143 4.68652 5.66406 4.33676 5.66406 3.90527V3.12402H9.17969V3.90527C9.17969 4.33676 9.52945 4.68652 9.96094 4.68652C10.3924 4.68652 10.7422 4.33676 10.7422 3.90527V3.12402H14.2969V3.90527C14.2969 4.33676 14.6466 4.68652 15.0781 4.68652C15.5096 4.68652 15.8594 4.33676 15.8594 3.90527V3.12402H16.875C17.7366 3.12402 18.4375 3.82496 18.4375 4.68652V9.13965C18.4375 9.57113 18.7873 9.9209 19.2188 9.9209C19.6502 9.9209 20 9.57113 20 9.13965V4.68652C20 2.9634 18.5981 1.56152 16.875 1.56152Z" fill="#0E2A18"/>
<path d="M15.2734 10.5459C12.6672 10.5459 10.5469 12.6662 10.5469 15.2725C10.5469 17.8787 12.6672 19.999 15.2734 19.999C17.8797 19.999 20 17.8787 20 15.2725C20 12.6662 17.8797 10.5459 15.2734 10.5459ZM15.2734 18.4365C13.5288 18.4365 12.1094 17.0171 12.1094 15.2725C12.1094 13.5278 13.5288 12.1084 15.2734 12.1084C17.0181 12.1084 18.4375 13.5278 18.4375 15.2725C18.4375 17.0171 17.0181 18.4365 15.2734 18.4365Z" fill="#0E2A18"/>
<path d="M16.4062 14.4912H16.0547V13.6709C16.0547 13.2394 15.7049 12.8896 15.2734 12.8896C14.842 12.8896 14.4922 13.2394 14.4922 13.6709V15.2725C14.4922 15.7039 14.842 16.0537 15.2734 16.0537H16.4062C16.8377 16.0537 17.1875 15.7039 17.1875 15.2725C17.1875 14.841 16.8377 14.4912 16.4062 14.4912Z" fill="#0E2A18"/>
<path d="M11.6797 8.9834C12.1112 8.9834 12.4609 8.63362 12.4609 8.20215C12.4609 7.77068 12.1112 7.4209 11.6797 7.4209C11.2482 7.4209 10.8984 7.77068 10.8984 8.20215C10.8984 8.63362 11.2482 8.9834 11.6797 8.9834Z" fill="#0E2A18"/>
<path d="M8.28125 12.3818C8.71272 12.3818 9.0625 12.0321 9.0625 11.6006C9.0625 11.1691 8.71272 10.8193 8.28125 10.8193C7.84978 10.8193 7.5 11.1691 7.5 11.6006C7.5 12.0321 7.84978 12.3818 8.28125 12.3818Z" fill="#0E2A18"/>
<path d="M4.88281 8.9834C5.31428 8.9834 5.66406 8.63362 5.66406 8.20215C5.66406 7.77068 5.31428 7.4209 4.88281 7.4209C4.45134 7.4209 4.10156 7.77068 4.10156 8.20215C4.10156 8.63362 4.45134 8.9834 4.88281 8.9834Z" fill="#0E2A18"/>
<path d="M4.88281 12.3818C5.31428 12.3818 5.66406 12.0321 5.66406 11.6006C5.66406 11.1691 5.31428 10.8193 4.88281 10.8193C4.45134 10.8193 4.10156 11.1691 4.10156 11.6006C4.10156 12.0321 4.45134 12.3818 4.88281 12.3818Z" fill="#0E2A18"/>
<path d="M4.88281 15.7803C5.31428 15.7803 5.66406 15.4305 5.66406 14.999C5.66406 14.5676 5.31428 14.2178 4.88281 14.2178C4.45134 14.2178 4.10156 14.5676 4.10156 14.999C4.10156 15.4305 4.45134 15.7803 4.88281 15.7803Z" fill="#0E2A18"/>
<path d="M8.28125 15.7803C8.71272 15.7803 9.0625 15.4305 9.0625 14.999C9.0625 14.5676 8.71272 14.2178 8.28125 14.2178C7.84978 14.2178 7.5 14.5676 7.5 14.999C7.5 15.4305 7.84978 15.7803 8.28125 15.7803Z" fill="#0E2A18"/>
<path d="M8.28125 8.9834C8.71272 8.9834 9.0625 8.63362 9.0625 8.20215C9.0625 7.77068 8.71272 7.4209 8.28125 7.4209C7.84978 7.4209 7.5 7.77068 7.5 8.20215C7.5 8.63362 7.84978 8.9834 8.28125 8.9834Z" fill="#0E2A18"/>
</g>
<defs>
<clipPath id="clip0_1_878">
<rect width="20" height="20" fill="white" transform="translate(0 -0.000976562)"/>
</clipPath>
</defs>
</svg>
