<svg width="50" height="50" viewBox="0 0 50 50" fill="none" xmlns="http://www.w3.org/2000/svg">
<path fill-rule="evenodd" clip-rule="evenodd" d="M42.3819 23.6565L39.1012 24.7193C38.8933 24.7886 38.7315 24.9446 38.6622 25.1467C38.395 25.9153 38.1818 26.5371 37.819 27.2896L37.4956 27.9596C37.4032 28.1502 37.409 28.3755 37.5014 28.5661L39.0725 31.6504L35.5089 35.2084L34.371 34.6308L37.1952 26.0997C37.3441 25.6516 37.0118 25.1987 36.5425 25.1987H35.6877C36.1786 23.9049 36.427 22.5418 36.4269 21.1325C36.4267 14.831 31.3034 9.70224 24.9962 9.70244C18.6948 9.70264 13.5659 14.8316 13.5661 21.1331C13.5662 23.8073 14.5019 26.3949 16.2059 28.4395L16.206 34.3309L14.4848 35.2089L10.921 31.651L12.4919 28.5666C12.5398 28.4729 12.5652 28.3694 12.5662 28.2641C12.5673 28.1589 12.5438 28.0549 12.4977 27.9602C11.9485 26.825 11.7455 26.34 11.3309 25.1474C11.2616 24.9453 11.0999 24.7893 10.8977 24.72L7.61119 23.6573L7.61109 18.615L10.8975 17.5522C11.0996 17.4829 11.2614 17.3269 11.3307 17.1248C11.5916 16.3743 11.8272 15.7106 12.1739 14.9819L12.4973 14.3119C12.5897 14.1155 12.5897 13.896 12.4915 13.7055L10.9204 10.6212L14.484 7.06324L17.5626 8.62844C17.6569 8.67729 17.7612 8.70373 17.8674 8.70573C17.9736 8.70772 18.0788 8.68521 18.1749 8.63994C18.9578 8.26334 19.4144 8.02394 20.2831 7.71574L20.9877 7.46734C21.087 7.43318 21.1768 7.37618 21.2501 7.30094C21.3233 7.2257 21.3778 7.13431 21.4093 7.03414L22.4778 3.74764L27.5144 3.74754L28.583 7.03394C28.6523 7.23604 28.8083 7.39784 29.0104 7.46714C30.2224 7.88844 30.6735 8.08074 31.8233 8.63954C32.0139 8.73194 32.2392 8.72614 32.4298 8.62794L35.5083 7.06264L39.0721 10.6204L37.5011 13.7048C37.4087 13.8954 37.4029 14.1149 37.4953 14.3113C37.8656 15.0881 38.1157 15.5653 38.4137 16.4195L38.6621 17.1241C38.7314 17.3262 38.8932 17.4822 39.0953 17.5515L42.3818 18.6142L42.3819 23.6565ZM24.7254 35.174L32.7481 35.1738L35.5954 26.5677L27.5727 26.5679L24.7254 35.174ZM17.5748 34.3135C17.5748 34.7871 17.9618 35.1741 18.4412 35.1741L23.2814 35.174L24.0091 32.9849L21.1558 32.985C20.7804 32.985 20.4742 32.6731 20.4742 32.2977L20.4741 27.6192C20.4452 27.1687 20.3354 25.9269 18.1522 25.5746C17.7717 26.3411 17.574 27.1853 17.5747 28.0409L17.5748 34.3135ZM25.0658 21.0693C26.8217 21.0693 28.2541 19.6368 28.254 17.881C28.254 16.1251 26.8215 14.6985 25.0656 14.6986C23.3097 14.6986 21.8831 16.1253 21.8832 17.8812C21.8833 19.637 23.3099 21.0693 25.0658 21.0693ZM24.4596 31.6103L26.4233 25.6669C26.5157 25.3897 26.7814 25.1991 27.076 25.1991L31.7776 25.199C30.7783 23.5125 28.9473 22.4382 26.9547 22.4382L23.1831 22.4383C21.5081 22.4383 20.0006 23.1777 18.9725 24.3444C20.7342 24.8064 21.7392 25.9212 21.8432 27.5615V27.6019L21.8433 31.6104L24.4596 31.6103ZM34.2033 25.1988C34.7693 23.9165 35.0581 22.5534 35.0581 21.1326C35.058 15.5878 30.5469 11.0769 24.9963 11.0771C19.4515 11.0772 14.9349 15.5883 14.935 21.1331C14.935 22.9929 15.4549 24.8065 16.408 26.3718C17.0606 23.7264 19.2265 21.6702 21.9296 21.1792C21.0574 20.3533 20.5145 19.1808 20.5144 17.8812C20.5143 15.3687 22.559 13.3298 25.0657 13.3297C27.5782 13.3296 29.6229 15.3685 29.623 17.881C29.623 19.1806 29.0801 20.3531 28.2022 21.1848C30.4433 21.5948 32.3724 23.0907 33.3197 25.1989L34.2033 25.1988ZM26.1118 45.1373C26.1118 45.7553 25.6151 46.2521 24.9971 46.2521C24.3849 46.2521 23.8824 45.7554 23.8824 45.1374C23.8824 44.5251 24.3849 44.0284 24.9971 44.0284C25.6151 44.0283 26.1118 44.5251 26.1118 45.1373ZM40.0259 45.137C40.0259 45.755 39.5292 46.2518 38.9112 46.2518C38.299 46.2518 37.7964 45.7551 37.7964 45.1371C37.7964 44.5248 38.2989 44.0223 38.9111 44.0223C39.5292 44.0222 40.0259 44.5247 40.0259 45.137ZM12.1978 45.1377C12.1978 45.7557 11.7011 46.2525 11.0831 46.2525C10.4709 46.2525 9.96829 45.7558 9.96829 45.1378C9.96829 44.5255 10.4708 44.023 11.083 44.023C11.701 44.0229 12.1977 44.5254 12.1978 45.1377ZM43.2828 17.4647L39.8461 16.3501C39.4971 15.3759 39.3307 14.9617 38.8757 14.0224L40.5218 10.7994C40.5865 10.6709 40.609 10.5253 40.5862 10.3832C40.5634 10.2412 40.4964 10.1099 40.3947 10.0081L36.1262 5.73994C35.9183 5.53204 35.5948 5.48004 35.3291 5.61284L32.112 7.25324C31.2016 6.82654 30.7469 6.62414 29.7843 6.28874L28.6637 2.85214C28.5771 2.56914 28.3114 2.37854 28.0168 2.37854L21.981 2.37864C21.836 2.37812 21.6946 2.42373 21.5773 2.50887C21.46 2.59401 21.3728 2.71426 21.3283 2.85224L20.2137 6.28894C19.2719 6.61224 18.78 6.82784 17.8861 7.25354L14.6631 5.61324C14.3974 5.48044 14.0797 5.53244 13.866 5.74034L9.60349 10.0089C9.49937 10.1092 9.43068 10.2406 9.40777 10.3834C9.38486 10.5261 9.40898 10.6724 9.47649 10.8002L11.1169 14.0231C10.6936 14.8972 10.4691 15.4282 10.1524 16.3508L6.71579 17.4656C6.57825 17.5108 6.45845 17.5982 6.37343 17.7154C6.28841 17.8326 6.24248 17.9736 6.24219 18.1183L6.24229 24.1541C6.2426 24.2989 6.28853 24.4399 6.37355 24.5571C6.45857 24.6742 6.57836 24.7616 6.71589 24.8068L10.1526 25.9215C10.4694 26.8441 10.6938 27.375 11.1172 28.2491L9.47699 31.4721C9.33839 31.732 9.39039 32.0555 9.60409 32.2634L13.8668 36.5317C14.0786 36.7437 14.4021 36.7946 14.6639 36.6588L16.6508 35.648C16.8588 35.9265 17.129 36.1525 17.4399 36.308C17.7508 36.4634 18.0937 36.544 18.4413 36.5432L24.3154 36.5431L24.3155 38.5416L12.215 38.5419C11.2158 38.5419 10.4014 39.3563 10.4014 40.3613L10.4015 42.7525C9.36179 43.0526 8.59939 44.0056 8.59939 45.1377C8.59939 46.5124 9.71419 47.6213 11.0831 47.6213C12.452 47.6213 13.5667 46.5123 13.5667 45.1376C13.5667 44.0055 12.81 43.0525 11.7703 42.7522L11.7702 40.361C11.7702 40.1127 11.9724 39.9105 12.2149 39.9105L24.3154 39.9102L24.3155 42.7519C23.2758 43.0523 22.5134 44.0053 22.5135 45.1374C22.5135 46.5121 23.6283 47.621 24.9972 47.621C26.3719 47.621 27.4808 46.512 27.4808 45.1373C27.4808 44.0052 26.7241 43.0522 25.6845 42.7519L25.6844 39.9102L37.7791 39.9099C37.8985 39.9101 38.013 39.9576 38.0975 40.042C38.1819 40.1265 38.2295 40.241 38.2296 40.3604L38.2297 42.7516C37.1901 43.052 36.4277 44.005 36.4277 45.1371C36.4277 46.5118 37.5425 47.6207 38.9114 47.6207C40.2803 47.6207 41.395 46.5117 41.395 45.137C41.395 44.0049 40.6383 43.0519 39.5987 42.7516L39.5986 40.3604C39.5986 39.3554 38.7842 38.541 37.7791 38.541L25.6844 38.5413V36.5428L33.245 36.5426C33.5396 36.5426 33.8053 36.352 33.8977 36.0748L33.9381 35.9477L35.3301 36.6581C35.5958 36.7909 35.9192 36.7389 36.1272 36.531L40.3955 32.2625C40.6034 32.0546 40.6554 31.7311 40.5225 31.4712L38.8821 28.2483C39.225 27.5167 39.4236 27.1056 39.708 26.3018L39.8466 25.9206L43.2832 24.8058C43.4207 24.7607 43.5405 24.6733 43.6255 24.5561C43.7106 24.4389 43.7565 24.2979 43.7568 24.1531L43.7567 18.1173C43.7563 17.9726 43.7103 17.8316 43.6252 17.7145C43.5401 17.5973 43.4203 17.5099 43.2828 17.4647Z" fill="#0E2A18"/>
</svg>
