<svg width="30" height="30" viewBox="0 0 30 30" fill="none" xmlns="http://www.w3.org/2000/svg">
<g clip-path="url(#clip0_1_771)">
<path d="M17.8711 15C17.8711 16.5857 16.5857 17.8711 15 17.8711C13.4143 17.8711 12.1289 16.5857 12.1289 15C12.1289 13.4143 13.4143 12.1289 15 12.1289C16.5857 12.1289 17.8711 13.4143 17.8711 15Z" fill="white"/>
<path d="M21.7135 9.91994C21.5754 9.54581 21.3552 9.20738 21.0692 8.92953C20.7914 8.64341 20.4529 8.42325 20.0788 8.28523C19.7753 8.1674 19.3194 8.02707 18.4796 7.98887C17.5711 7.94744 17.2988 7.93848 14.999 7.93848C12.6989 7.93848 12.4266 7.94721 11.5184 7.98863C10.6786 8.02707 10.2224 8.16734 9.9192 8.28523C9.54501 8.42319 9.20656 8.64337 8.92879 8.92953C8.64268 9.20739 8.42244 9.54581 8.28426 9.91994C8.16643 10.2235 8.02609 10.6796 7.98789 11.5194C7.94646 12.4276 7.9375 12.6999 7.9375 15C7.9375 17.2998 7.94646 17.5721 7.98789 18.4805C8.02609 19.3203 8.16643 19.7763 8.28426 20.0797C8.42236 20.4539 8.64251 20.7923 8.92855 21.0702C9.20636 21.3563 9.54481 21.5764 9.91896 21.7145C10.2225 21.8325 10.6786 21.9729 11.5184 22.0111C12.4266 22.0525 12.6987 22.0612 14.9988 22.0612C17.299 22.0612 17.5714 22.0525 18.4793 22.0111C19.3191 21.9729 19.7753 21.8325 20.0788 21.7145C20.4503 21.5712 20.7876 21.3517 21.0692 21.0701C21.3507 20.7886 21.5702 20.4512 21.7135 20.0797C21.8313 19.7762 21.9716 19.3204 22.0101 18.4805C22.0515 17.5721 22.0602 17.2998 22.0602 15C22.0602 12.6999 22.0515 12.4276 22.0101 11.5194C21.9719 10.6796 21.8315 10.2234 21.7135 9.91994ZM14.999 19.4227C12.5562 19.4227 10.5759 17.4426 10.5759 14.9997C10.5759 12.5569 12.5562 10.5768 14.999 10.5768C17.4416 10.5768 19.4219 12.5569 19.4219 14.9997C19.4219 17.4426 17.4416 19.4227 14.999 19.4227ZM19.5968 11.4356C19.026 11.4356 18.5632 10.9728 18.5632 10.402C18.5632 9.83123 19.026 9.36834 19.5968 9.36834C20.1676 9.36834 20.6304 9.83111 20.6304 10.4019C20.6301 10.9728 20.1676 11.4356 19.5968 11.4356Z" fill="white"/>
<path d="M15 0C6.71701 0 0 6.71701 0 15C0 23.283 6.71701 30 15 30C23.283 30 30 23.283 30 15C30 6.71701 23.283 0 15 0ZM23.5613 18.5511C23.5197 19.468 23.3739 20.094 23.161 20.6419C22.9397 21.2141 22.6013 21.7337 22.1675 22.1675C21.7337 22.6013 21.2141 22.9397 20.6419 23.161C20.0942 23.3739 19.468 23.5194 18.5513 23.5613C17.6329 23.6032 17.3394 23.6133 15.0002 23.6133C12.6608 23.6133 12.3676 23.6032 11.4489 23.5613C10.5322 23.5194 9.90604 23.3739 9.35824 23.161C8.78345 22.9448 8.26277 22.6057 7.83258 22.1674C7.39446 21.7372 7.05546 21.2166 6.83924 20.6419C6.62637 20.0942 6.48059 19.468 6.43893 18.5513C6.39656 17.6326 6.38672 17.3392 6.38672 15C6.38672 12.6608 6.39656 12.3674 6.43869 11.4489C6.48029 10.532 6.6259 9.90604 6.83877 9.35807C7.05506 8.78331 7.39421 8.2627 7.83252 7.83258C8.26266 7.39431 8.7833 7.05522 9.35807 6.839C9.90604 6.62613 10.532 6.48059 11.4489 6.43869C12.3674 6.3968 12.6608 6.38672 15 6.38672C17.3392 6.38672 17.6326 6.3968 18.5511 6.43887C19.468 6.48059 20.094 6.62613 20.6419 6.83877C21.2167 7.05511 21.7374 7.39424 22.1677 7.83252C22.6058 8.26272 22.9448 8.78335 23.161 9.35807C23.3741 9.90604 23.5196 10.532 23.5615 11.4489C23.6034 12.3674 23.6133 12.6608 23.6133 15C23.6133 17.3392 23.6034 17.6326 23.5613 18.5511Z" fill="white"/>
</g>
<defs>
<clipPath id="clip0_1_771">
<rect width="30" height="30" fill="white"/>
</clipPath>
</defs>
</svg>
