<svg width="26" height="26" viewBox="0 0 26 26" fill="none" xmlns="http://www.w3.org/2000/svg">
<path d="M1.4001 12.2341L8.98343 4.65078C9.18775 4.45345 9.4614 4.34425 9.74545 4.34672C10.0295 4.34919 10.3012 4.46312 10.5021 4.66398C10.7029 4.86484 10.8169 5.13655 10.8193 5.4206C10.8218 5.70465 10.7126 5.9783 10.5153 6.18262L4.78118 11.9167H23.8327C24.12 11.9167 24.3956 12.0308 24.5987 12.234C24.8019 12.4372 24.916 12.7127 24.916 13C24.916 13.2874 24.8019 13.5629 24.5987 13.7661C24.3956 13.9692 24.12 14.0834 23.8327 14.0834H4.78118L10.5153 19.8175C10.6187 19.9174 10.7013 20.0369 10.758 20.1691C10.8148 20.3013 10.8447 20.4434 10.846 20.5873C10.8472 20.7311 10.8198 20.8738 10.7653 21.0069C10.7109 21.14 10.6304 21.261 10.5287 21.3627C10.427 21.4644 10.306 21.5449 10.1729 21.5993C10.0397 21.6538 9.89709 21.6812 9.75325 21.68C9.6094 21.6787 9.46725 21.6488 9.33508 21.5921C9.20291 21.5353 9.08337 21.4528 8.98343 21.3493L1.4001 13.766C1.19701 13.5628 1.08292 13.2873 1.08292 13C1.08292 12.7128 1.19701 12.4373 1.4001 12.2341Z" fill="white"/>
</svg>
