<svg width="40" height="40" viewBox="0 0 40 40" fill="none" xmlns="http://www.w3.org/2000/svg">
<path d="M26.01 25.7857C29.8409 19.7744 29.3593 20.5244 29.4697 20.3677C30.8644 18.4005 31.6016 16.0851 31.6016 13.6719C31.6016 7.27203 26.4082 2 20 2C13.6127 2 8.39844 7.26163 8.39844 13.6719C8.39844 16.0836 9.15106 18.4595 10.5915 20.4532L13.9898 25.7857C10.3564 26.3441 4.17969 28.008 4.17969 31.6719C4.17969 33.0075 5.05142 34.9108 9.20436 36.394C12.1042 37.4296 15.9381 38 20 38C27.5955 38 35.8203 35.8574 35.8203 31.6719C35.8203 28.0074 29.6508 26.3452 26.01 25.7857ZM12.3534 19.293C12.3419 19.2749 12.3297 19.2571 12.3171 19.2397C11.1185 17.5907 10.5078 15.6365 10.5078 13.6719C10.5078 8.39717 14.7551 4.10938 20 4.10938C25.234 4.10938 29.4922 8.39907 29.4922 13.6719C29.4922 15.6396 28.8931 17.5276 27.7593 19.1331C27.6577 19.2671 28.1877 18.4436 20 31.2914L12.3534 19.293ZM20 35.8906C11.7035 35.8906 6.28906 33.452 6.28906 31.6719C6.28906 30.4754 9.07119 28.5082 15.2362 27.7413L19.1105 33.8208C19.2058 33.9703 19.3373 34.0934 19.4927 34.1787C19.6482 34.264 19.8226 34.3087 19.9999 34.3087C20.1772 34.3087 20.3517 34.264 20.5071 34.1787C20.6626 34.0934 20.794 33.9703 20.8893 33.8208L24.7636 27.7413C30.9287 28.5082 33.7109 30.4754 33.7109 31.6719C33.7109 33.4369 28.3452 35.8906 20 35.8906Z" fill="white"/>
<path d="M20 8.39844C17.0922 8.39844 14.7266 10.7641 14.7266 13.6719C14.7266 16.5796 17.0922 18.9453 20 18.9453C22.9078 18.9453 25.2734 16.5796 25.2734 13.6719C25.2734 10.7641 22.9078 8.39844 20 8.39844ZM20 16.8359C18.2553 16.8359 16.8359 15.4165 16.8359 13.6719C16.8359 11.9272 18.2553 10.5078 20 10.5078C21.7447 10.5078 23.1641 11.9272 23.1641 13.6719C23.1641 15.4165 21.7447 16.8359 20 16.8359Z" fill="white"/>
</svg>
