<svg width="50" height="50" viewBox="0 0 50 50" fill="none" xmlns="http://www.w3.org/2000/svg">
<path d="M10.1562 17.1875H13.2812C13.7109 17.1875 14.0625 16.8359 14.0625 16.4063V14.5859C14.0625 13.8047 13.625 12.7187 12.5 12.3672V10.9766L16.125 12.1875L14.8906 15.8984C14.855 16.0052 14.8429 16.1184 14.8551 16.2302C14.8674 16.3421 14.9037 16.45 14.9616 16.5465C15.0195 16.643 15.0976 16.7258 15.1905 16.7892C15.2835 16.8527 15.389 16.8953 15.5 16.9141L24.875 18.4766C24.9141 18.4844 24.9609 18.4844 25 18.4844C25.0391 18.4844 25.0859 18.4844 25.125 18.4766L34.5 16.9141C34.611 16.8953 34.7165 16.8527 34.8095 16.7892C34.9024 16.7258 34.9805 16.643 35.0384 16.5465C35.0963 16.45 35.1326 16.3421 35.1449 16.2302C35.1571 16.1184 35.145 16.0052 35.1094 15.8984L33.875 12.1875L40.0859 10.1172C40.3984 10.0156 40.6094 9.73437 40.6172 9.40625C40.6328 9.07812 40.4375 8.78125 40.1406 8.65625L25.2969 2.40625C25.1016 2.32813 24.8828 2.32813 24.6875 2.40625L9.84375 8.65625C9.54688 8.78125 9.35156 9.07812 9.36719 9.40625C9.38281 9.73437 9.59375 10.0156 9.89844 10.1172L10.9375 10.4609V12.3672C9.8125 12.7187 9.375 13.8047 9.375 14.5859V16.4063C9.375 16.8359 9.72656 17.1875 10.1562 17.1875ZM17.5469 10.2109C18.6484 9.50781 21.0781 8.33594 25 8.33594C28.9219 8.33594 31.3516 9.51562 32.4531 10.2109C32.8203 10.4453 32.9219 10.9297 32.6953 11.2891C32.6401 11.3755 32.5684 11.4501 32.4842 11.5086C32.4001 11.5672 32.3052 11.6086 32.205 11.6304C32.1048 11.6521 32.0013 11.6539 31.9004 11.6356C31.7995 11.6172 31.7033 11.5791 31.6172 11.5234C30.6641 10.9141 28.5312 9.89062 25.0078 9.89062C21.4844 9.89062 19.3516 10.9141 18.3984 11.5234C18.0391 11.7578 17.5547 11.6484 17.3203 11.2812C17.0781 10.9297 17.1875 10.4453 17.5469 10.2109ZM10.9375 14.5938C10.9453 14.2344 11.0937 13.8047 11.7188 13.8047C12.3516 13.8047 12.4922 14.2344 12.5 14.5859V15.625H10.9375V14.5938ZM41.3516 22.6172V21.5703C41.3516 21.0156 41.1328 20.4922 40.7344 20.1094C40.3359 19.7188 39.7969 19.5078 39.25 19.5313C31.5078 19.75 26.3516 21.8203 25 22.4297C23.6484 21.8203 18.5 19.7578 10.75 19.5313C10.1875 19.5078 9.66406 19.7188 9.26562 20.1094C8.86719 20.5 8.64844 21.0156 8.64844 21.5703V22.6172C7.27344 22.9688 6.25 24.2031 6.25 25.6875V42.4609C6.25 44.2109 7.67187 45.6406 9.42969 45.6406H40.5781C42.3281 45.6406 43.7578 44.2187 43.7578 42.4609V25.6875C43.7529 24.9816 43.514 24.2974 43.0786 23.7418C42.6431 23.1862 42.0358 22.7907 41.3516 22.6172ZM39.2891 21.0938C39.4219 21.0938 39.5469 21.1406 39.6406 21.2344C39.7344 21.3281 39.7891 21.4453 39.7891 21.5781V40.625C39.7891 40.8828 39.5859 41.0937 39.3281 41.1016C32.6172 41.2812 27.8438 42.8516 25.7734 43.6719V23.7969C27.2188 23.1797 32.1484 21.2969 39.2891 21.0938ZM10.2109 21.5703C10.2109 21.4375 10.2656 21.3203 10.3594 21.2266C10.4531 21.1406 10.5703 21.0859 10.7031 21.0859H10.7188C17.8594 21.2891 22.7891 23.1719 24.2266 23.7891V43.6562C22.1641 42.8359 17.3828 41.2656 10.6719 41.0859C10.5485 41.0809 10.4319 41.0286 10.346 40.9399C10.2602 40.8512 10.2118 40.7328 10.2109 40.6094V21.5703Z" fill="#0E2A18"/>
<path d="M12.3671 24.6875C13.1484 24.7422 13.9375 24.8125 14.7187 24.9062C14.75 24.9062 14.7812 24.9141 14.8125 24.9141C15.2031 24.9141 15.539 24.625 15.5859 24.2266C15.5993 24.1248 15.5923 24.0214 15.5652 23.9224C15.5382 23.8235 15.4916 23.7309 15.4283 23.6501C15.365 23.5693 15.2862 23.502 15.1966 23.4521C15.1069 23.4022 15.0082 23.3707 14.9062 23.3594C14.0937 23.2578 13.2734 23.1875 12.4687 23.1328C12.2625 23.1193 12.0595 23.1883 11.9042 23.3246C11.7489 23.4608 11.654 23.6532 11.6406 23.8594C11.6271 24.0655 11.6961 24.2686 11.8324 24.4239C11.9686 24.5792 12.161 24.674 12.3671 24.6875ZM11.6406 26.3281C11.6332 26.4304 11.6461 26.5331 11.6788 26.6302C11.7114 26.7274 11.763 26.8171 11.8306 26.8942C11.8982 26.9713 11.9805 27.0341 12.0726 27.0791C12.1647 27.1241 12.2648 27.1503 12.3671 27.1562C13.8359 27.25 15.2968 27.4219 16.7109 27.6641C16.7578 27.6719 16.7968 27.6719 16.8437 27.6719C17.2187 27.6719 17.5468 27.4062 17.6093 27.0234C17.6264 26.9224 17.6234 26.8189 17.6005 26.719C17.5775 26.6191 17.5351 26.5247 17.4755 26.4412C17.416 26.3577 17.3406 26.2868 17.2536 26.2326C17.1667 26.1783 17.0698 26.1418 16.9687 26.125C15.5078 25.875 13.9921 25.6953 12.4687 25.5937C12.039 25.5703 11.6718 25.8984 11.6406 26.3281ZM11.6406 30.5234C11.6332 30.6257 11.6461 30.7284 11.6788 30.8255C11.7114 30.9227 11.763 31.0125 11.8306 31.0895C11.8982 31.1666 11.9805 31.2294 12.0726 31.2744C12.1647 31.3194 12.2648 31.3456 12.3671 31.3516C16.5078 31.625 19.7656 32.4375 21.7656 33.0703C21.8437 33.0937 21.9218 33.1094 22 33.1094C22.3281 33.1094 22.6406 32.8984 22.7421 32.5625C22.7734 32.465 22.785 32.3624 22.7763 32.2604C22.7677 32.1584 22.7389 32.0592 22.6917 31.9684C22.6445 31.8776 22.5798 31.7971 22.5013 31.7314C22.4228 31.6658 22.332 31.6163 22.2343 31.5859C20.1562 30.9297 16.7656 30.0859 12.4687 29.7969C12.039 29.7734 11.6718 30.0937 11.6406 30.5234ZM22.2343 34.5C20.1562 33.8437 16.7734 33 12.4687 32.7109C12.3666 32.7043 12.2642 32.7177 12.1673 32.7506C12.0705 32.7835 11.981 32.8352 11.9041 32.9027C11.8272 32.9701 11.7644 33.0521 11.7192 33.1439C11.6739 33.2356 11.6472 33.3354 11.6406 33.4375C11.6332 33.5397 11.6461 33.6424 11.6788 33.7396C11.7114 33.8368 11.763 33.9265 11.8306 34.0036C11.8982 34.0806 11.9805 34.1435 12.0726 34.1885C12.1647 34.2334 12.2648 34.2597 12.3671 34.2656C16.5078 34.5391 19.7656 35.3516 21.7656 35.9844C21.8437 36.0078 21.9218 36.0234 22 36.0234C22.3281 36.0234 22.6406 35.8125 22.7421 35.4766C22.7738 35.3791 22.7858 35.2764 22.7773 35.1743C22.7689 35.0722 22.7402 34.9728 22.6929 34.8819C22.6456 34.791 22.5807 34.7104 22.502 34.6448C22.4233 34.5793 22.3323 34.53 22.2343 34.5ZM22.2343 37.5391C20.1562 36.8828 16.7656 36.0391 12.4687 35.75C12.3665 35.7427 12.2638 35.7557 12.1667 35.7884C12.0696 35.8211 11.9799 35.8727 11.9028 35.9403C11.8258 36.0078 11.763 36.0901 11.7179 36.1821C11.6729 36.2742 11.6466 36.3743 11.6406 36.4766C11.6332 36.5788 11.6461 36.6815 11.6788 36.7787C11.7114 36.8759 11.763 36.9656 11.8306 37.0426C11.8982 37.1197 11.9805 37.1825 12.0726 37.2275C12.1647 37.2725 12.2648 37.2987 12.3671 37.3047C16.5078 37.5781 19.7656 38.3906 21.7656 39.0234C21.8437 39.0469 21.9218 39.0625 22 39.0625C22.3281 39.0625 22.6406 38.8516 22.7421 38.5156C22.7738 38.4182 22.7858 38.3154 22.7773 38.2133C22.7689 38.1112 22.7402 38.0118 22.6929 37.9209C22.6456 37.83 22.5807 37.7494 22.502 37.6839C22.4233 37.6183 22.3323 37.5691 22.2343 37.5391ZM27.9921 33.1094C28.0703 33.1094 28.1484 33.1016 28.2265 33.0703C30.2265 32.4375 33.4765 31.625 37.625 31.3516C37.727 31.3449 37.8268 31.3182 37.9186 31.273C38.0103 31.2277 38.0923 31.1649 38.1597 31.088C38.2272 31.0111 38.2789 30.9216 38.3118 30.8248C38.3447 30.7279 38.3582 30.6255 38.3515 30.5234C38.3448 30.4213 38.3181 30.3216 38.2729 30.2298C38.2277 30.1381 38.1648 30.0561 38.0879 29.9886C38.011 29.9212 37.9216 29.8695 37.8247 29.8366C37.7279 29.8037 37.6255 29.7902 37.5234 29.7969C33.2265 30.0781 29.8437 30.9297 27.7578 31.5859C27.3437 31.7187 27.1171 32.1562 27.25 32.5625C27.3593 32.8984 27.664 33.1094 27.9921 33.1094ZM27.9921 36.0234C28.0703 36.0234 28.1484 36.0156 28.2265 35.9844C30.2265 35.3516 33.4765 34.5391 37.625 34.2656C38.0546 34.2344 38.3828 33.8672 38.3515 33.4375C38.3203 33.0078 37.9453 32.6875 37.5234 32.7109C33.2265 33 29.8437 33.8437 27.7578 34.5C27.3437 34.6328 27.1171 35.0703 27.25 35.4766C27.3593 35.8125 27.664 36.0234 27.9921 36.0234ZM27.9921 39.0625C28.0703 39.0625 28.1484 39.0547 28.2265 39.0234C30.2265 38.3906 33.4765 37.5781 37.625 37.3047C37.727 37.298 37.8268 37.2713 37.9186 37.2261C38.0103 37.1809 38.0923 37.118 38.1597 37.0411C38.2272 36.9642 38.2789 36.8748 38.3118 36.7779C38.3447 36.681 38.3582 36.5786 38.3515 36.4766C38.3448 36.3745 38.3181 36.2747 38.2729 36.1829C38.2277 36.0912 38.1648 36.0092 38.0879 35.9418C38.011 35.8743 37.9216 35.8226 37.8247 35.7897C37.7279 35.7568 37.6255 35.7433 37.5234 35.75C33.2265 36.0312 29.8437 36.8828 27.7578 37.5391C27.3437 37.6719 27.1171 38.1094 27.25 38.5156C27.3593 38.8516 27.664 39.0625 27.9921 39.0625Z" fill="#0E2A18"/>
</svg>
