<svg width="36" height="36" viewBox="0 0 36 36" fill="none" xmlns="http://www.w3.org/2000/svg">
<path d="M28.4512 22.3003C27.7142 21.5328 26.8252 21.1225 25.883 21.1225C24.9485 21.1225 24.0519 21.5252 23.2844 22.2927L20.8834 24.6861C20.6859 24.5797 20.4883 24.481 20.2983 24.3822C20.0248 24.2454 19.7665 24.1162 19.5461 23.9795C17.297 22.551 15.2531 20.6894 13.2928 18.2808C12.343 17.0803 11.7047 16.0697 11.2413 15.044C11.8643 14.4741 12.4418 13.8814 13.004 13.3116C13.2168 13.0988 13.4295 12.8785 13.6423 12.6657C15.2379 11.0701 15.2379 9.00337 13.6423 7.40774L11.568 5.33342C11.3324 5.09788 11.0893 4.85473 10.8613 4.61159C10.4054 4.1405 9.92676 3.65421 9.43287 3.19832C8.69584 2.46889 7.81445 2.08138 6.88747 2.08138C5.96048 2.08138 5.06389 2.46889 4.30407 3.19832L4.28887 3.21352L1.70547 5.81971C0.732899 6.79228 0.178228 7.97761 0.0566562 9.35289C-0.125701 11.5716 0.527746 13.6383 1.02923 14.9908C2.26014 18.3112 4.09892 21.3885 6.84188 24.6861C10.1699 28.66 14.1742 31.7981 18.7483 34.0091C20.4959 34.8373 22.8286 35.8175 25.4347 35.9847C25.5943 35.9923 25.7615 35.9999 25.9134 35.9999C27.6686 35.9999 29.1427 35.3692 30.2976 34.1155C30.3052 34.1003 30.3204 34.0927 30.328 34.0775C30.7231 33.5988 31.179 33.1657 31.6577 32.7022C31.9844 32.3907 32.3187 32.064 32.6455 31.7221C33.3977 30.9395 33.7928 30.0277 33.7928 29.0931C33.7928 28.1509 33.3901 27.2467 32.6227 26.4869L28.4512 22.3003ZM31.1714 30.3012C31.1638 30.3012 31.1638 30.3088 31.1714 30.3012C30.8751 30.6203 30.5711 30.9091 30.2444 31.2282C29.7505 31.6993 29.2491 32.1932 28.778 32.7478C28.0105 33.5684 27.1064 33.956 25.921 33.956C25.8071 33.956 25.6855 33.956 25.5715 33.9484C23.3148 33.804 21.2177 32.9226 19.6449 32.1704C15.3443 30.0885 11.568 27.1327 8.42991 23.3868C5.83891 20.2639 4.10651 17.3766 2.95918 14.2765C2.25254 12.3846 1.9942 10.9105 2.10818 9.52005C2.18416 8.63105 2.52608 7.89403 3.15673 7.26337L5.74773 4.67238C6.12004 4.32286 6.51515 4.1329 6.90266 4.1329C7.38135 4.1329 7.76886 4.42163 8.012 4.66478L8.0348 4.68757C8.49829 5.12067 8.93899 5.56897 9.40248 6.04766C9.63802 6.2908 9.88117 6.53394 10.1243 6.78468L12.1986 8.859C13.004 9.66441 13.004 10.409 12.1986 11.2145C11.9783 11.4348 11.7655 11.6551 11.5452 11.8679C10.9069 12.5213 10.2991 13.1292 9.63803 13.7219C9.62283 13.7371 9.60763 13.7447 9.60003 13.7599C8.94659 14.4133 9.06816 15.0516 9.20493 15.4847L9.22772 15.553C9.76719 16.8599 10.527 18.0909 11.6819 19.5573L11.6895 19.5649C13.7867 22.1483 15.9977 24.1618 18.4368 25.7043C18.7483 25.9018 19.0674 26.0614 19.3714 26.2134C19.6449 26.3501 19.9032 26.4793 20.1236 26.6161C20.154 26.6313 20.1844 26.6541 20.2148 26.6693C20.4731 26.7984 20.7162 26.8592 20.967 26.8592C21.5976 26.8592 21.9927 26.4641 22.1219 26.3349L24.7205 23.7363C24.9789 23.478 25.3892 23.1665 25.8678 23.1665C26.3389 23.1665 26.7264 23.4628 26.962 23.7211L26.9772 23.7363L31.1638 27.923C31.9464 28.698 31.9464 29.4958 31.1714 30.3012ZM19.4549 8.56267C21.4457 8.89699 23.2541 9.83917 24.6977 11.2828C26.1414 12.7265 27.076 14.5349 27.4179 16.5256C27.5015 17.0271 27.9346 17.3766 28.4284 17.3766C28.4892 17.3766 28.5424 17.369 28.6032 17.3614C29.1655 17.2702 29.5378 16.7384 29.4466 16.1761C29.0363 13.7675 27.8966 11.5716 26.1566 9.83157C24.4166 8.09158 22.2207 6.95185 19.8121 6.54154C19.2498 6.45036 18.7255 6.82268 18.6267 7.37735C18.528 7.93202 18.8927 8.47149 19.4549 8.56267ZM35.9583 15.8798C35.2821 11.9135 33.4129 8.30433 30.5408 5.4322C27.6686 2.56007 24.0595 0.690904 20.0932 0.0146617C19.5385 -0.0841153 19.0142 0.295796 18.9155 0.850467C18.8243 1.41274 19.1966 1.93701 19.7589 2.03579C23.2996 2.63605 26.5289 4.31526 29.0971 6.87586C31.6653 9.44406 33.3369 12.6733 33.9372 16.2141C34.0207 16.7156 34.4538 17.0651 34.9477 17.0651C35.0085 17.0651 35.0617 17.0575 35.1225 17.0499C35.6772 16.9663 36.0571 16.4344 35.9583 15.8798Z" fill="white"/>
</svg>
