<svg width="50" height="50" viewBox="0 0 50 50" fill="none" xmlns="http://www.w3.org/2000/svg">
<path d="M29.8593 48.3568C20.13 48.3568 9.39983 47.4058 7.31303 46.9492C2.21398 45.8332 2.67718 35.1558 3.16775 23.8511C3.25549 21.8256 3.34322 19.802 3.397 17.8473C3.72435 5.89732 4.89511 4.59449 9.7602 4.20864C13.747 3.89449 36.7545 4.67751 38.1942 4.72657C38.7102 4.68883 43.2366 4.43883 45.43 6.38506C46.1932 7.06242 46.6008 7.91997 46.6423 8.93412C46.7942 12.6605 47.647 41.3605 46.6196 45.2624C45.9932 47.6398 38.3036 48.3568 29.8593 48.3568ZM13.1027 5.54921C11.6338 5.54921 10.4979 5.56996 9.87058 5.61996C6.33001 5.90015 5.13662 5.99449 4.8102 17.886C4.75737 19.8483 4.66869 21.8794 4.58001 23.9124C4.15832 33.6577 3.67907 44.7049 7.61398 45.5671C14.7885 47.1332 44.4772 47.836 45.2498 44.9011C46.1093 41.6388 45.5234 16.2511 45.2272 8.99166C45.2206 8.69627 45.1515 8.40562 45.0243 8.13892C44.8972 7.87221 44.7149 7.63553 44.4895 7.44449C42.9678 6.09261 39.4753 6.04261 38.2621 6.13978C38.2338 6.14166 38.2093 6.14355 38.1819 6.14166C37.9772 6.13506 20.8791 5.54921 13.1027 5.54921Z" fill="white"/>
<path d="M46.1428 15.6389H4.21731C4.02966 15.6389 3.84969 15.5643 3.717 15.4317C3.58431 15.299 3.50977 15.119 3.50977 14.9313C3.50977 14.7437 3.58431 14.5637 3.717 14.431C3.84969 14.2983 4.02966 14.2238 4.21731 14.2238H46.1418C46.3295 14.2238 46.5095 14.2983 46.6422 14.431C46.7748 14.5637 46.8494 14.7437 46.8494 14.9313C46.8494 15.119 46.7748 15.299 46.6422 15.4317C46.5095 15.5643 46.3304 15.6389 46.1428 15.6389ZM11.3098 13.17C10.4815 13.17 9.65977 12.8474 9.08335 12.2483C8.15882 11.2889 7.98807 9.99172 8.63618 8.86436C9.3626 7.59832 10.8437 6.95115 12.2371 7.29172C13.4607 7.58983 14.2852 8.55209 14.389 9.80304C14.445 10.4531 14.2949 11.1044 13.96 11.6644C13.625 12.2244 13.1223 12.6647 12.523 12.9228C12.1362 13.0898 11.723 13.1691 11.3098 13.1691V13.17ZM11.49 8.61625C10.7796 8.61625 10.1579 9.05587 9.86354 9.56907C9.66826 9.9087 9.43995 10.5785 10.1032 11.2672C10.5588 11.7417 11.3437 11.8898 11.9645 11.6228C12.7362 11.2927 13.0305 10.5285 12.9786 9.92002C12.9532 9.61625 12.7975 8.88511 11.9013 8.66624C11.7666 8.63334 11.6286 8.61656 11.49 8.61625Z" fill="white"/>
<path d="M11.3228 8.62566C11.1351 8.62566 10.9552 8.55112 10.8225 8.41843C10.6898 8.28574 10.6152 8.10577 10.6152 7.91812V2.35208C10.6152 2.16443 10.6898 1.98446 10.8225 1.85177C10.9552 1.71908 11.1351 1.64453 11.3228 1.64453C11.5104 1.64453 11.6904 1.71908 11.8231 1.85177C11.9558 1.98446 12.0303 2.16443 12.0303 2.35208V7.91812C12.0303 8.10577 11.9558 8.28574 11.8231 8.41843C11.6904 8.55112 11.5104 8.62566 11.3228 8.62566ZM20.4152 13.17C19.5869 13.17 18.7652 12.8474 18.1888 12.2483C17.2643 11.2889 17.0935 9.9917 17.7416 8.86434C18.4681 7.5983 19.9492 6.95114 21.3417 7.2917C22.5652 7.58981 23.3898 8.55208 23.4945 9.80208C23.5507 10.4523 23.4007 11.1038 23.0657 11.664C22.7308 12.2242 22.2279 12.6646 21.6284 12.9228C21.2426 13.0898 20.8284 13.1691 20.4152 13.1691V13.17ZM20.5945 8.61623C19.885 8.61623 19.2633 9.05585 18.9681 9.56906C18.7737 9.90868 18.5454 10.5785 19.2077 11.2672C19.6643 11.7417 20.4492 11.8898 21.07 11.6228C21.8407 11.2926 22.135 10.5285 22.0841 9.92C22.0586 9.61623 21.903 8.8851 21.0067 8.66623C20.8721 8.63332 20.7331 8.61654 20.5945 8.61623Z" fill="white"/>
<path d="M20.4283 8.62566C20.2406 8.62566 20.0606 8.55112 19.9279 8.41843C19.7952 8.28574 19.7207 8.10577 19.7207 7.91812V2.35208C19.7207 2.16443 19.7952 1.98446 19.9279 1.85177C20.0606 1.71908 20.2406 1.64453 20.4283 1.64453C20.6159 1.64453 20.7959 1.71908 20.9286 1.85177C21.0613 1.98446 21.1358 2.16443 21.1358 2.35208V7.91812C21.1358 8.10577 21.0613 8.28574 20.9286 8.41843C20.7959 8.55112 20.6159 8.62566 20.4283 8.62566ZM29.5207 13.17C28.6924 13.17 27.8707 12.8474 27.2943 12.2483C26.3698 11.2889 26.1981 9.9917 26.8471 8.86434C27.5735 7.5983 29.0518 6.95114 30.4471 7.2917C31.6707 7.58981 32.4952 8.55208 32.5999 9.80208C32.6562 10.4523 32.5062 11.1038 32.1712 11.664C31.8362 12.2242 31.3334 12.6646 30.7339 12.9228C30.3481 13.0898 29.9339 13.1691 29.5207 13.1691V13.17ZM29.6999 8.61623C28.9905 8.61623 28.3679 9.05585 28.0735 9.56906C27.8783 9.90868 27.6509 10.5785 28.3132 11.2672C28.7698 11.7417 29.5547 11.8898 30.1754 11.6228C30.9462 11.2926 31.2405 10.5285 31.1896 9.92C31.1641 9.61623 31.0084 8.8851 30.1113 8.66623C29.9766 8.63332 29.8386 8.61654 29.6999 8.61623Z" fill="white"/>
<path d="M29.5357 8.62566C29.348 8.62566 29.1681 8.55112 29.0354 8.41843C28.9027 8.28574 28.8281 8.10577 28.8281 7.91812V2.35208C28.8281 2.16443 28.9027 1.98446 29.0354 1.85177C29.1681 1.71908 29.348 1.64453 29.5357 1.64453C29.7233 1.64453 29.9033 1.71908 30.036 1.85177C30.1687 1.98446 30.2432 2.16443 30.2432 2.35208V7.91812C30.2432 8.10577 30.1687 8.28574 30.036 8.41843C29.9033 8.55112 29.7233 8.62566 29.5357 8.62566ZM38.6272 13.17C37.7998 13.17 36.9781 12.8474 36.4008 12.2483C35.4762 11.2889 35.3055 9.9917 35.9536 8.86434C36.68 7.5983 38.1583 6.95114 39.5545 7.2917C40.7781 7.58981 41.6027 8.55208 41.7074 9.80302C41.7634 10.4531 41.6133 11.1044 41.2783 11.6644C40.9434 12.2244 40.4406 12.6647 39.8413 12.9228C39.4545 13.0898 39.0394 13.1691 38.6272 13.1691V13.17ZM37.4196 11.2662C37.8772 11.7398 38.6602 11.8898 39.2819 11.6228C40.0536 11.2926 40.3479 10.5285 40.2961 9.92C40.2715 9.61623 40.1159 8.8851 39.2187 8.66623C38.3451 8.45397 37.531 8.95868 37.181 9.56906C36.9857 9.90868 36.7574 10.5785 37.4206 11.2672L37.4196 11.2662Z" fill="white"/>
<path d="M38.6403 8.62566C38.4527 8.62566 38.2727 8.55112 38.14 8.41843C38.0073 8.28574 37.9328 8.10577 37.9328 7.91812V2.35208C37.9328 2.16443 38.0073 1.98446 38.14 1.85177C38.2727 1.71908 38.4527 1.64453 38.6403 1.64453C38.828 1.64453 39.008 1.71908 39.1407 1.85177C39.2733 1.98446 39.3479 2.16443 39.3479 2.35208V7.91812C39.3479 8.10577 39.2733 8.28574 39.1407 8.41843C39.008 8.55112 38.828 8.62566 38.6403 8.62566ZM19.2705 40.3983C19.1627 40.3983 19.0564 40.3737 18.9595 40.3264C18.8627 40.279 18.778 40.2102 18.7118 40.1251C18.6456 40.04 18.5998 39.9409 18.5778 39.8354C18.5557 39.7298 18.5581 39.6207 18.5847 39.5162C18.8743 38.3776 19.1196 37.2455 19.3649 36.1143C19.5752 35.1474 19.7847 34.1813 20.0215 33.2106C17.6262 31.9464 15.429 30.3464 13.6394 28.5587C13.5396 28.4591 13.4719 28.332 13.4448 28.1937C13.4177 28.0554 13.4326 27.9121 13.4875 27.7823C13.5465 27.6556 13.6398 27.5479 13.7569 27.4716C13.8739 27.3952 14.0101 27.3532 14.1498 27.3502C15.7083 27.3813 17.4281 27.2087 19.0969 27.0502C19.8394 26.9794 20.5734 26.9096 21.2809 26.8568L23.8771 21.5002C23.9328 21.3851 24.0187 21.2873 24.1255 21.2171C24.2324 21.1469 24.3563 21.107 24.484 21.1016C24.6117 21.0962 24.7385 21.1255 24.8509 21.1863C24.9634 21.2472 25.0572 21.3374 25.1224 21.4474C25.646 22.3313 26.1649 23.1879 26.6847 24.0436C27.1583 24.8228 27.6309 25.6021 28.1064 26.4021C29.079 26.553 30.0215 26.6804 30.9649 26.8087C32.0243 26.953 33.0828 27.0974 34.1828 27.2728C34.3074 27.2926 34.4245 27.3454 34.5218 27.4257C34.6192 27.5059 34.6933 27.6108 34.7365 27.7293C34.7798 27.8479 34.7905 27.9759 34.7676 28.0999C34.7447 28.224 34.689 28.3398 34.6064 28.4351C33.0177 30.2653 31.4988 31.6804 29.9743 32.7483C30.3262 34.8785 30.7592 37.1096 31.5979 39.2068C31.6531 39.3454 31.663 39.4979 31.6264 39.6425C31.5897 39.7871 31.5082 39.9164 31.3936 40.012C31.2791 40.1075 31.1372 40.1644 30.9884 40.1745C30.8395 40.1845 30.6913 40.1473 30.5649 40.0681C28.6819 38.886 26.7564 37.6766 25.0432 36.2747C22.9715 37.5709 21.2347 38.8625 19.746 40.2143C19.616 40.3328 19.4464 40.3984 19.2705 40.3983ZM25.1054 34.6964C25.2705 34.6964 25.4347 34.754 25.5658 34.8662C26.8045 35.9257 28.2007 36.8813 29.6168 37.7926C29.096 36.0275 28.7809 34.2408 28.5045 32.5304C28.4828 32.3961 28.5002 32.2583 28.5547 32.1337C28.6093 32.009 28.6986 31.9027 28.812 31.8275C30.08 30.9879 31.3488 29.8842 32.6668 28.4747C32.0309 28.3823 31.4026 28.2974 30.7743 28.2106C29.6999 28.0687 28.6272 27.9146 27.5564 27.7483C27.4536 27.7317 27.3558 27.6927 27.2699 27.634C27.1839 27.5753 27.112 27.4984 27.0592 27.4087C26.529 26.5125 26.0026 25.6455 25.4753 24.7785C25.1771 24.286 24.8781 23.7936 24.579 23.2974L22.3752 27.8426C22.3208 27.9553 22.2375 28.0515 22.1337 28.1214C22.03 28.1914 21.9095 28.2325 21.7847 28.2408C20.9658 28.2936 20.1054 28.3757 19.2309 28.4596C18.129 28.5634 17.0036 28.6719 15.9054 28.7276C17.5106 30.0941 19.2749 31.2617 21.1602 32.2049C21.3044 32.2774 21.4195 32.3969 21.4865 32.5438C21.5534 32.6907 21.5681 32.8561 21.5281 33.0125C21.2394 34.1511 20.9932 35.2832 20.7479 36.4143C20.6507 36.8634 20.5536 37.3125 20.4536 37.7625C21.7186 36.7596 23.1347 35.7813 24.7366 34.8002C24.8476 34.7322 24.9753 34.6963 25.1054 34.6964Z" fill="white"/>
</svg>
