<svg width="50" height="50" viewBox="0 0 50 50" fill="none" xmlns="http://www.w3.org/2000/svg">
<g clip-path="url(#clip0_1_525)">
<path d="M49.8002 31.2394L45.5151 26.9545C45.3812 26.8205 45.2222 26.7142 45.0472 26.6417C44.8721 26.5692 44.6846 26.5319 44.4951 26.5319C44.3057 26.5319 44.1181 26.5692 43.9431 26.6417C43.7681 26.7142 43.6091 26.8205 43.4752 26.9545L42.7651 27.6645L39.5402 24.4397L42.3243 21.6556C43.4911 20.4889 43.4525 18.5518 42.2384 17.3376C41.7641 16.8595 41.1501 16.5446 40.4851 16.4384C40.7238 15.9864 40.8412 15.4803 40.8257 14.9694C40.8002 14.2069 40.5036 13.4785 39.9891 12.9152C39.4746 12.3518 38.776 11.9905 38.0189 11.8961C38.1785 11.5094 38.2547 11.0935 38.2427 10.6754C38.2176 9.9202 37.9265 9.19817 37.4207 8.63681C36.9149 8.07544 36.2271 7.71085 35.4786 7.60742C35.6625 7.19777 35.7511 6.75176 35.7379 6.30293C35.7105 5.49048 35.3755 4.71877 34.8006 4.14402C34.2258 3.56926 33.454 3.2344 32.6416 3.20722C32.2427 3.19377 31.8454 3.26236 31.4741 3.40876C31.1029 3.55516 30.7657 3.77624 30.4834 4.0583L29.2173 5.32314L21.8751 3.51474C21.2294 3.35599 20.5491 3.42018 19.9446 3.69688C19.34 3.97359 18.8468 4.44655 18.545 5.03896C18.015 4.6352 17.3654 4.41981 16.6992 4.42691C16.0329 4.43401 15.3881 4.6632 14.8668 5.07817C14.3455 5.49314 13.9776 6.07017 13.8213 6.71786C13.665 7.36555 13.7293 8.04687 14.004 8.6539C13.5487 8.71449 13.1135 8.87897 12.732 9.13463C12.3505 9.3903 12.0329 9.73029 11.8038 10.1283C11.5747 10.5263 11.4402 10.9717 11.4107 11.43C11.3812 11.8884 11.4576 12.3473 11.6338 12.7714C11.151 12.8282 10.6893 13.0018 10.2887 13.2774C9.88817 13.5529 9.56085 13.922 9.33515 14.3526C9.10944 14.7832 8.99216 15.2623 8.99346 15.7485C8.99477 16.2347 9.11462 16.7132 9.34264 17.1426C8.7974 17.2283 8.28652 17.4633 7.86656 17.8214C7.44659 18.1796 7.1339 18.6469 6.96312 19.1718C6.79233 19.6966 6.77011 20.2585 6.89889 20.7952C7.02768 21.3319 7.30247 21.8225 7.69283 22.2127L9.77691 24.2969L6.82223 27.2517L6.52496 26.9545C6.39104 26.8205 6.23204 26.7142 6.05704 26.6417C5.88204 26.5692 5.69447 26.5319 5.50504 26.5319C5.31561 26.5319 5.12804 26.5692 4.95304 26.6417C4.77804 26.7142 4.61904 26.8205 4.48512 26.9545L0.199961 31.2394C0.0719374 31.3674 9.15366e-06 31.541 8.73617e-10 31.722C-9.15191e-06 31.9031 0.0719015 32.0767 0.199913 32.2047C0.327924 32.3328 0.501549 32.4047 0.682593 32.4047C0.863637 32.4047 1.03727 32.3328 1.16529 32.2048L5.45035 27.9199C5.45753 27.9127 5.46604 27.907 5.47542 27.9032C5.48479 27.8993 5.49484 27.8973 5.50499 27.8973C5.51514 27.8973 5.52519 27.8993 5.53456 27.9032C5.54394 27.907 5.55246 27.9127 5.55963 27.9199L18.8744 41.2344C18.8816 41.2415 18.8873 41.2501 18.8912 41.2595C18.8951 41.2688 18.8971 41.2789 18.8971 41.2891C18.8971 41.2992 18.8951 41.3093 18.8912 41.3187C18.8873 41.328 18.8816 41.3366 18.8744 41.3437L14.5899 45.6288C14.4637 45.7572 14.3932 45.9302 14.394 46.1103C14.3947 46.2903 14.4666 46.4628 14.5939 46.5901C14.7212 46.7174 14.8936 46.7893 15.0736 46.7901C15.2537 46.7908 15.4267 46.7205 15.5551 46.5942L19.8402 42.3091C19.9742 42.1751 20.0804 42.0161 20.1529 41.8411C20.2254 41.6661 20.2628 41.4785 20.2628 41.2891C20.2628 41.0997 20.2254 40.9121 20.1529 40.7371C20.0804 40.5621 19.9742 40.4031 19.8402 40.2691L19.5554 39.9843L23.5431 35.9961L23.6759 36.0825C25.0218 36.9493 26.5661 37.4597 28.1634 37.5655C28.6136 37.599 29.0363 37.7949 29.3527 38.1169L30.8327 39.5969L30.1602 40.2692C29.8902 40.54 29.7385 40.9068 29.7385 41.2892C29.7385 41.6716 29.8902 42.0383 30.1602 42.3091L34.4454 46.5942C34.5086 46.6585 34.5839 46.7096 34.6669 46.7446C34.75 46.7796 34.8391 46.7978 34.9293 46.7982C35.0194 46.7986 35.1087 46.7811 35.192 46.7468C35.2754 46.7125 35.3511 46.662 35.4148 46.5982C35.4785 46.5345 35.529 46.4588 35.5633 46.3754C35.5976 46.2921 35.6151 46.2028 35.6147 46.1126C35.6143 46.0225 35.5961 45.9334 35.561 45.8503C35.526 45.7673 35.4749 45.692 35.4106 45.6288L31.1256 41.3437C31.1112 41.3292 31.103 41.3096 31.103 41.2891C31.103 41.2686 31.1112 41.249 31.1256 41.2345L44.4406 27.9199C44.4478 27.9127 44.4563 27.9071 44.4656 27.9032C44.475 27.8993 44.485 27.8973 44.4952 27.8973C44.5053 27.8973 44.5154 27.8993 44.5247 27.9032C44.5341 27.9071 44.5426 27.9127 44.5498 27.9199L48.8348 32.205C48.8982 32.2684 48.9735 32.3186 49.0563 32.3529C49.1391 32.3872 49.2279 32.4049 49.3175 32.4049C49.4072 32.4049 49.4959 32.3872 49.5788 32.3529C49.6616 32.3186 49.7368 32.2683 49.8002 32.2049C49.8636 32.1415 49.9139 32.0663 49.9482 31.9835C49.9825 31.9006 50.0001 31.8119 50.0001 31.7222C50.0001 31.6326 49.9825 31.5438 49.9481 31.461C49.9138 31.3782 49.8635 31.3029 49.8002 31.2395V31.2394ZM20.1969 5.13066C20.3851 4.98222 20.6048 4.87886 20.8391 4.82852C21.0734 4.77817 21.3162 4.78218 21.5487 4.84023L28.0893 6.45156L24.4048 10.1359L20.8069 8.33906C20.4409 8.15785 20.133 7.87766 19.9182 7.5303C19.7035 7.18294 19.5903 6.78232 19.5918 6.37392C19.591 6.13424 19.6452 5.89757 19.7501 5.68206C19.855 5.46655 20.0078 5.27793 20.1969 5.13066ZM15.5806 6.26777C15.7317 6.1166 15.9111 5.99669 16.1086 5.91487C16.306 5.83305 16.5176 5.79094 16.7314 5.79094C16.9451 5.79094 17.1567 5.83305 17.3542 5.91487C17.5516 5.99669 17.731 6.1166 17.8821 6.26777L18.2352 6.6209C18.276 7.23978 18.4787 7.83708 18.823 8.35297C19.1673 8.86886 19.6412 9.28522 20.197 9.56035L22.0427 10.4822L23.564 11.95C23.866 12.2563 24.0345 12.6696 24.0326 13.0998C24.0307 13.5299 23.8586 13.9418 23.554 14.2454C23.2493 14.549 22.8368 14.7197 22.4067 14.7201C21.9766 14.7205 21.5638 14.5506 21.2586 14.2476L15.5806 8.56924C15.4295 8.41812 15.3096 8.23872 15.2278 8.04128C15.1461 7.84383 15.104 7.63222 15.104 7.4185C15.104 7.20479 15.1461 6.99317 15.2278 6.79573C15.3096 6.59828 15.4295 6.41888 15.5806 6.26777ZM13.2471 10.468C13.5526 10.1633 13.9664 9.99217 14.3978 9.99217C14.8292 9.99217 15.243 10.1633 15.5484 10.468L20.293 15.2126C20.4441 15.3637 20.564 15.5431 20.6458 15.7406C20.7276 15.938 20.7696 16.1496 20.7696 16.3633C20.7696 16.5771 20.7275 16.7887 20.6457 16.9861C20.5639 17.1836 20.4441 17.3629 20.2929 17.5141C20.1418 17.6652 19.9624 17.785 19.765 17.8668C19.5675 17.9486 19.3559 17.9907 19.1422 17.9907C18.9285 17.9907 18.7169 17.9485 18.5194 17.8668C18.322 17.785 18.1426 17.6651 17.9915 17.514L13.2471 12.7693C12.942 12.4641 12.7706 12.0502 12.7706 11.6186C12.7706 11.1871 12.942 10.7732 13.2471 10.468ZM10.836 14.5903C11.1414 14.2855 11.5553 14.1144 11.9867 14.1144C12.4182 14.1144 12.8321 14.2855 13.1375 14.5903L17.0265 18.4792C17.1777 18.6303 17.2976 18.8097 17.3794 19.0072C17.4612 19.2046 17.5034 19.4163 17.5034 19.63C17.5034 19.8438 17.4613 20.0554 17.3796 20.2529C17.2978 20.4504 17.1779 20.6298 17.0268 20.781C16.8757 20.9321 16.6963 21.052 16.4988 21.1338C16.3014 21.2157 16.0897 21.2578 15.876 21.2578C15.6623 21.2578 15.4506 21.2158 15.2531 21.134C15.0557 21.0522 14.8762 20.9324 14.7251 20.7812L10.836 16.8918C10.5313 16.5863 10.3602 16.1725 10.3602 15.7411C10.3602 15.3096 10.5313 14.8958 10.836 14.5903ZM8.1815 20.0968C8.18175 19.775 8.27734 19.4606 8.4562 19.1931C8.63506 18.9256 8.88917 18.7172 9.18643 18.594C9.48369 18.4709 9.81078 18.4386 10.1264 18.5013C10.442 18.5639 10.7319 18.7187 10.9596 18.946L13.7598 21.7461C14.0622 22.0519 14.2313 22.4649 14.23 22.895C14.2288 23.325 14.0575 23.7371 13.7534 24.0412C13.4493 24.3453 13.0372 24.5166 12.6071 24.5178C12.1771 24.519 11.764 24.3499 11.4583 24.0476L8.65816 21.2475C8.50656 21.0967 8.38637 20.9174 8.30455 20.7199C8.22273 20.5224 8.18091 20.3106 8.1815 20.0968ZM7.78746 28.217L10.7575 25.2471C11.2178 25.61 11.7747 25.8297 12.3589 25.8788C12.9431 25.9278 13.5288 25.8041 14.0433 25.523C14.5578 25.2419 14.9783 24.8158 15.2525 24.2977C15.5268 23.7796 15.6428 23.1923 15.586 22.6088C15.6816 22.6178 15.7781 22.6225 15.8755 22.6227C16.2685 22.6226 16.6577 22.5452 17.0207 22.3948C17.3838 22.2444 17.7137 22.024 17.9915 21.7461C18.2694 21.4682 18.4898 21.1383 18.6402 20.7753C18.7906 20.4122 18.8679 20.0231 18.8679 19.6301C18.8679 19.5333 18.8633 19.4372 18.8542 19.342C18.9494 19.351 19.0455 19.3558 19.1422 19.3558C19.9359 19.3558 20.6971 19.0405 21.2582 18.4793C21.8194 17.9181 22.1347 17.1569 22.1347 16.3633C22.1347 16.266 22.1301 16.1695 22.1209 16.0738C22.2166 16.083 22.3127 16.0876 22.409 16.0876C22.9423 16.088 23.466 15.9458 23.9258 15.6757C24.3857 15.4056 24.7649 15.0174 25.0242 14.5514C25.2836 14.0855 25.4136 13.5586 25.4008 13.0255C25.388 12.4924 25.2329 11.9723 24.9515 11.5193L31.4475 5.02324C31.5994 4.87267 31.7806 4.7549 31.9799 4.67721C32.1792 4.59952 32.3923 4.56356 32.606 4.57158C33.0687 4.58977 33.5075 4.78168 33.835 5.10906C34.1625 5.43643 34.3545 5.87521 34.3728 6.33789C34.3808 6.55161 34.3449 6.7647 34.2672 6.96397C34.1895 7.16323 34.0717 7.34441 33.9212 7.49629L32.9892 8.42822L32.9878 8.42959L29.3321 12.0855C29.2058 12.2139 29.1354 12.387 29.1362 12.567C29.1369 12.747 29.2088 12.9195 29.3361 13.0468C29.4634 13.1741 29.6358 13.246 29.8158 13.2468C29.9959 13.2476 30.1689 13.1772 30.2973 13.051L33.9531 9.39521C34.5879 8.76045 35.6587 8.79951 36.3405 9.48125C36.671 9.80644 36.8634 10.2466 36.8776 10.7101C36.8856 10.9238 36.8497 11.1369 36.772 11.3361C36.6943 11.5354 36.5765 11.7166 36.4259 11.8685L32.7702 15.5242C32.6439 15.6526 32.5736 15.8256 32.5743 16.0057C32.5751 16.1857 32.6469 16.3582 32.7742 16.4855C32.9015 16.6128 33.074 16.6847 33.254 16.6854C33.4341 16.6862 33.6071 16.6158 33.7355 16.4895L36.536 13.689C37.1708 13.0548 38.2413 13.0933 38.923 13.7754C39.2535 14.1006 39.4459 14.5408 39.4601 15.0043C39.4681 15.218 39.4322 15.4311 39.3544 15.6304C39.2767 15.8297 39.1589 16.0109 39.0084 16.1628L37.9201 17.2511L37.9195 17.2517L36.2083 18.9628C36.082 19.0912 36.0116 19.2642 36.0124 19.4443C36.0132 19.6243 36.085 19.7968 36.2123 19.9241C36.3396 20.0514 36.5121 20.1232 36.6921 20.124C36.8722 20.1248 37.0452 20.0544 37.1736 19.9281L38.8868 18.2163C39.0386 18.0658 39.2196 17.9481 39.4188 17.8705C39.6179 17.7929 39.8309 17.757 40.0445 17.7651C40.5081 17.7795 40.9483 17.9721 41.2735 18.3028C41.9553 18.9848 41.9939 20.0558 41.3594 20.6902L39.8587 22.1909H39.8582L32.9264 29.1227C31.0229 31.0325 28.5729 32.3037 25.9154 32.7604C25.0752 32.9047 24.3005 33.3064 23.6986 33.9102L18.5901 39.0186L7.78746 28.217ZM30.3179 37.1516C29.7674 36.5954 29.0335 36.2584 28.2529 36.2033C26.9331 36.1156 25.6551 35.705 24.5313 35.0075L24.663 34.8759C25.0663 34.4715 25.5852 34.2025 26.148 34.1059C29.0829 33.6015 31.7886 32.1977 33.8909 30.0886L38.5745 25.405L41.7994 28.6298L31.798 38.6314L30.3179 37.1516Z" fill="white"/>
</g>
<defs>
<clipPath id="clip0_1_525">
<rect width="50" height="50" fill="white"/>
</clipPath>
</defs>
</svg>
