<svg width="50" height="50" viewBox="0 0 50 50" fill="none" xmlns="http://www.w3.org/2000/svg">
<path d="M33.2054 44.9153C32.2226 44.605 31.2652 44.2196 30.3415 43.7624C29.961 43.574 29.502 43.7306 29.314 44.1092C29.126 44.4889 29.2817 44.9487 29.6614 45.1367C30.6555 45.6291 31.6861 46.0441 32.7439 46.378C33.1504 46.5062 33.5795 46.279 33.7062 45.8773C33.7674 45.6834 33.749 45.473 33.655 45.2926C33.5611 45.1122 33.3994 44.9765 33.2054 44.9153ZM36.3882 41.3854C35.4495 41.2149 34.528 40.96 33.6352 40.6237C33.541 40.5881 33.4406 40.5713 33.34 40.5745C33.2393 40.5777 33.1402 40.6007 33.0485 40.6422C32.9567 40.6837 32.874 40.743 32.8052 40.8165C32.7364 40.8901 32.6827 40.9765 32.6474 41.0708C32.4976 41.467 32.6982 41.9092 33.0944 42.0586C34.0737 42.4278 35.0844 42.7075 36.1141 42.8943C36.526 42.9707 36.9297 42.6965 37.0061 42.2765C37.081 41.8598 36.8046 41.4605 36.3882 41.3854ZM22.4874 4.74316C15.272 4.74316 9.15869 10.5574 9.15869 18.0786C9.15869 19.964 7.6249 21.4978 5.73955 21.4978C5.53616 21.4978 5.3411 21.5786 5.19727 21.7224C5.05345 21.8662 4.97266 22.0613 4.97266 22.2647C4.97266 22.468 5.05345 22.6631 5.19727 22.8069C5.3411 22.9507 5.53616 23.0315 5.73955 23.0315C8.35918 23.0315 10.6932 20.948 10.6932 18.0712C10.6932 11.5681 15.9838 6.27705 22.4873 6.27705C28.9904 6.27705 34.2814 11.5681 34.2814 18.0712C34.2827 19.6788 34.2765 25.3989 34.2878 25.663C34.3073 28.3755 36.5178 30.5765 39.2348 30.5765C39.6587 30.5765 40.0017 30.2331 40.0017 29.8096C40.0017 29.386 39.6587 29.0427 39.2348 29.0427C37.3521 29.0427 35.8197 27.5104 35.8197 25.6272L35.8152 18.0712C35.8152 10.7221 29.8367 4.74316 22.4874 4.74316ZM23.738 30.0813C23.9731 29.729 23.8784 29.2526 23.5265 29.0175C23.1745 28.7831 22.6978 28.8767 22.4626 29.229C18.9648 34.4649 13.1772 37.8208 6.98115 38.2058C6.88064 38.212 6.78234 38.238 6.69186 38.2822C6.60138 38.3264 6.52051 38.388 6.45384 38.4635C6.38718 38.539 6.33604 38.6269 6.30335 38.7221C6.27065 38.8174 6.25703 38.9181 6.26328 39.0187C6.28984 39.4492 6.66494 39.7651 7.07617 39.7365C13.7473 39.3221 19.9759 35.7127 23.738 30.0813ZM25.4879 34.659C25.5525 34.5818 25.6013 34.4925 25.6315 34.3964C25.6617 34.3003 25.6726 34.1992 25.6636 34.0989C25.6547 33.9986 25.6261 33.901 25.5794 33.8118C25.5328 33.7225 25.469 33.6433 25.3917 33.5787C25.3145 33.514 25.2253 33.4651 25.1292 33.4349C25.0331 33.4047 24.932 33.3938 24.8316 33.4027C24.7313 33.4116 24.6337 33.4403 24.5444 33.487C24.4551 33.5337 24.376 33.5976 24.3114 33.6749C20.4508 38.2896 15.1018 41.3077 9.24902 42.1735C9.04784 42.2034 8.86674 42.3119 8.74555 42.4752C8.62435 42.6386 8.57298 42.8433 8.60273 43.0445C8.66484 43.4654 9.05645 43.7521 9.47373 43.6908C15.6981 42.77 21.3857 39.5625 25.4879 34.659ZM28.0551 38.0628C28.1222 37.9877 28.1738 37.9001 28.2071 37.805C28.2403 37.7099 28.2545 37.6092 28.2488 37.5086C28.243 37.408 28.2176 37.3096 28.1738 37.2189C28.13 37.1281 28.0688 37.0469 27.9937 36.9799C27.6769 36.6983 27.1931 36.7249 26.9107 37.0413C23.1456 41.2614 18.3118 44.2484 12.932 45.6796C12.7355 45.7319 12.5678 45.8602 12.4659 46.0362C12.3639 46.2122 12.336 46.4214 12.3883 46.618C12.496 47.0223 12.9116 47.2719 13.3267 47.1617C18.9967 45.6529 24.0896 42.5068 28.0551 38.0628ZM31.4387 40.5491C31.7165 40.2301 31.6836 39.7455 31.3645 39.4673C31.0463 39.1891 30.5617 39.222 30.2824 39.541C27.0456 43.2519 22.9701 46.2344 18.4977 48.1665C18.109 48.3343 17.9296 48.7858 18.0978 49.1745C18.2641 49.5599 18.713 49.744 19.1058 49.5744C23.7871 47.5525 28.0514 44.4315 31.4387 40.5491Z" fill="white"/>
<path d="M23.2198 19.1286L23.2512 18.2482C23.2584 18.045 23.1845 17.8472 23.0459 17.6983C22.9073 17.5495 22.7153 17.4617 22.5121 17.4544C22.0811 17.4435 21.7336 17.7704 21.7182 18.1935L21.6883 19.0488C21.1157 27.3875 14.1756 33.9798 5.88816 34.0565C5.78745 34.057 5.68781 34.0773 5.59495 34.1163C5.50208 34.1552 5.4178 34.2121 5.34692 34.2836C5.20377 34.4281 5.12388 34.6236 5.12483 34.827C5.12577 35.0304 5.20747 35.2251 5.35196 35.3682C5.49645 35.5114 5.69189 35.5912 5.89528 35.5903H5.90241C14.9851 35.5061 22.5915 28.2866 23.2198 19.1286Z" fill="white"/>
<path d="M38.3107 37.4046C32.2323 36.9323 27.4683 31.8026 27.4255 25.7094C27.4547 25.4285 27.4346 21.9013 27.441 18.0712C27.441 15.3396 25.2187 13.1172 22.4874 13.1172C19.7666 13.1172 17.5526 15.3223 17.5351 18.0391C17.535 18.0409 17.5339 18.0424 17.5338 18.0442L17.5042 18.8987C17.0807 25.051 11.9129 29.8702 5.73967 29.8702C5.53628 29.8702 5.34122 29.951 5.1974 30.0948C5.05358 30.2387 4.97278 30.4337 4.97278 30.6371C4.97278 30.8405 5.05358 31.0356 5.1974 31.1794C5.34122 31.3232 5.53628 31.404 5.73967 31.404C12.7157 31.404 18.5557 25.9572 19.0358 18.9785L19.0672 18.0712C19.0672 16.1851 20.6017 14.651 22.4874 14.651C24.3732 14.651 25.9074 16.1852 25.9074 18.0712C25.9071 18.1698 25.8882 25.529 25.8882 25.6276C25.8882 32.5531 31.2927 38.3979 38.1924 38.9338C38.3951 38.9495 38.5958 38.884 38.7503 38.7518C38.9048 38.6196 39.0004 38.4314 39.0162 38.2287C39.049 37.8064 38.733 37.4376 38.3107 37.4046Z" fill="white"/>
<path d="M39.2355 33.2415C35.0476 33.2415 31.6397 29.8425 31.6229 25.6584C31.6315 25.4208 31.627 19.9675 31.6281 18.0713C31.6281 13.0308 27.5278 8.93018 22.4873 8.93018C17.4472 8.93018 13.3465 13.0309 13.3465 18.0713C13.2318 22.6709 9.67246 25.6836 5.73955 25.6836C5.53616 25.6836 5.3411 25.7644 5.19727 25.9082C5.05345 26.052 4.97266 26.2471 4.97266 26.4505C4.97266 26.6539 5.05345 26.8489 5.19727 26.9928C5.3411 27.1366 5.53616 27.2174 5.73955 27.2174C10.5997 27.2174 14.8387 23.3869 14.8804 18.0714C14.8804 13.8768 18.2928 10.464 22.4874 10.464C26.682 10.464 30.0944 13.8768 30.0944 18.0714L30.0877 25.6278C30.0877 30.6717 34.1917 34.7754 39.2355 34.7754C39.6595 34.7754 40.0024 34.432 40.0024 34.0085C40.0024 33.585 39.6594 33.2415 39.2355 33.2415Z" fill="white"/>
<path d="M40.2024 0.361816C37.2933 0.361816 34.8107 2.19697 33.8337 4.76787C30.7736 2.15342 26.8185 0.557324 22.4874 0.557324C12.8299 0.557324 4.97278 8.41445 4.97278 18.072C4.97278 18.5038 5.35217 18.8407 5.74495 18.8407C6.13411 18.8407 6.505 18.5616 6.50784 17.9923C6.551 9.2168 13.7021 2.09102 22.4875 2.09102C26.7212 2.09102 30.5625 3.75957 33.4245 6.45635C33.3987 6.69637 33.3856 6.93759 33.3852 7.179C33.3852 10.091 35.2195 12.5759 37.7891 13.5545C38.2196 14.9883 38.468 16.499 38.468 18.0718V26.2712C38.468 26.6947 38.811 27.0381 39.2349 27.0381C39.6588 27.0381 40.0018 26.6947 40.0018 26.2712V18.0718C40.0018 16.6572 39.8229 15.2857 39.5025 13.9686C39.7326 13.9922 39.9661 14.0045 40.2025 14.0045C43.9657 14.0045 47.028 10.9426 47.028 7.179C47.028 3.42002 43.9656 0.361816 40.2024 0.361816ZM40.2024 12.4709C37.2891 12.4709 34.9189 10.0969 34.9189 7.1791C34.9189 4.26582 37.2892 1.89561 40.2024 1.89561C43.1201 1.89561 45.4942 4.26592 45.4942 7.1791C45.4942 10.0969 43.1201 12.4709 40.2024 12.4709Z" fill="white"/>
<path d="M41.4455 5.38924L39.4841 7.35028L38.9674 6.83358C38.8962 6.76235 38.8117 6.70584 38.7187 6.66728C38.6256 6.62873 38.5259 6.60889 38.4252 6.60889C38.3245 6.60889 38.2248 6.62873 38.1318 6.66728C38.0387 6.70584 37.9542 6.76235 37.883 6.83358C37.8118 6.90476 37.7553 6.98928 37.7167 7.08231C37.6782 7.17535 37.6583 7.27506 37.6583 7.37577C37.6583 7.47647 37.6782 7.57618 37.7167 7.66922C37.7553 7.76225 37.8118 7.84677 37.883 7.91795L38.942 8.97694C39.0132 9.04816 39.0977 9.10466 39.1907 9.1432C39.2838 9.18175 39.3835 9.20159 39.4842 9.20159C39.5849 9.20159 39.6846 9.18175 39.7776 9.1432C39.8707 9.10466 39.9552 9.04816 40.0264 8.97694L42.53 6.47371C42.6012 6.40253 42.6577 6.31801 42.6963 6.22498C42.7348 6.13195 42.7547 6.03223 42.7547 5.93153C42.7547 5.83082 42.7348 5.73111 42.6963 5.63808C42.6577 5.54505 42.6012 5.46052 42.53 5.38934C42.4588 5.31809 42.3743 5.26156 42.2812 5.22299C42.1882 5.18442 42.0885 5.16456 41.9878 5.16455C41.8871 5.16454 41.7873 5.18438 41.6943 5.22294C41.6012 5.26149 41.5167 5.318 41.4455 5.38924Z" fill="white"/>
</svg>
