<svg width="50" height="50" viewBox="0 0 50 50" fill="none" xmlns="http://www.w3.org/2000/svg">
<path d="M44.5312 4.6875H21.8414C21.6342 4.6875 21.4355 4.76981 21.289 4.91632C21.1425 5.06284 21.0602 5.26155 21.0602 5.46875C21.0602 5.67595 21.1425 5.87466 21.289 6.02118C21.4355 6.16769 21.6342 6.25 21.8414 6.25H44.5312C45.1527 6.25062 45.7484 6.49775 46.1878 6.93715C46.6273 7.37656 46.8744 7.97234 46.875 8.59375V15.625H3.125V8.59375C3.12562 7.97234 3.37275 7.37656 3.81215 6.93715C4.25156 6.49775 4.84734 6.25062 5.46875 6.25H14.0625C14.2697 6.25 14.4684 6.16769 14.6149 6.02118C14.7614 5.87466 14.8438 5.67595 14.8438 5.46875C14.8438 5.26155 14.7614 5.06284 14.6149 4.91632C14.4684 4.76981 14.2697 4.6875 14.0625 4.6875H5.46875C4.43313 4.68874 3.44028 5.10069 2.70798 5.83298C1.97569 6.56528 1.56374 7.55813 1.5625 8.59375V41.4062C1.56374 42.4419 1.97569 43.4347 2.70798 44.167C3.44028 44.8993 4.43313 45.3113 5.46875 45.3125H44.5312C45.5669 45.3113 46.5597 44.8993 47.292 44.167C48.0243 43.4347 48.4363 42.4419 48.4375 41.4062V8.59375C48.4363 7.55813 48.0243 6.56528 47.292 5.83298C46.5597 5.10069 45.5669 4.68874 44.5312 4.6875ZM44.5312 43.75H5.46875C4.84734 43.7494 4.25156 43.5023 3.81215 43.0628C3.37275 42.6234 3.12562 42.0277 3.125 41.4062V17.1875H46.875V41.4062C46.8744 42.0277 46.6273 42.6234 46.1878 43.0628C45.7484 43.5023 45.1527 43.7494 44.5312 43.75Z" fill="white"/>
<path d="M14.0524 6.25H22.2188C22.426 6.25 22.6247 6.16769 22.7712 6.02118C22.9177 5.87466 23 5.67595 23 5.46875C23 5.26155 22.9177 5.06284 22.7712 4.91632C22.6247 4.76981 22.426 4.6875 22.2188 4.6875H14.0524C13.8452 4.6875 13.6465 4.76981 13.5 4.91632C13.3535 5.06284 13.2712 5.26155 13.2712 5.46875C13.2712 5.67595 13.3535 5.87466 13.5 6.02118C13.6465 6.16769 13.8452 6.25 14.0524 6.25ZM35.9375 30.4688C35.9366 29.3144 35.752 28.1675 35.3906 27.0711C35.3844 27.0555 35.3805 27.0383 35.3727 27.0227C34.6506 24.8421 33.2597 22.9446 31.3976 21.5997C29.5355 20.2548 27.297 19.5309 25 19.5309C22.703 19.5309 20.4645 20.2548 18.6024 21.5997C16.7403 22.9446 15.3494 24.8421 14.6273 27.0227C14.6203 27.0383 14.6156 27.0539 14.6102 27.0711C13.8807 29.2775 13.8807 31.66 14.6102 33.8664C14.6156 33.882 14.6203 33.8992 14.6273 33.9148C15.3494 36.0954 16.7403 37.9929 18.6024 39.3378C20.4645 40.6827 22.703 41.4066 25 41.4066C27.297 41.4066 29.5355 40.6827 31.3976 39.3378C33.2597 37.9929 34.6506 36.0954 35.3727 33.9148C35.3805 33.8992 35.3844 33.8828 35.3906 33.8664C35.752 32.77 35.9366 31.6231 35.9375 30.4688ZM25 39.8438C24.0203 39.8438 22.7508 37.8336 22.1789 34.375H27.8219C27.2492 37.8336 25.9797 39.8438 25 39.8438ZM21.9836 32.8125C21.8397 31.2533 21.8397 29.6842 21.9836 28.125H28.0164C28.1603 29.6842 28.1603 31.2533 28.0164 32.8125H21.9836ZM15.625 30.4688C15.6281 29.6776 15.7318 28.89 15.9336 28.125H20.4227C20.3523 28.9016 20.3125 29.6875 20.3125 30.4688C20.3125 31.25 20.3523 32.0359 20.4227 32.8125H15.9336C15.7318 32.0475 15.6281 31.2599 15.625 30.4688ZM25 21.0938C25.9797 21.0938 27.2492 23.1039 27.8211 26.5625H22.1797C22.7516 23.1039 24.0211 21.0938 25 21.0938ZM29.5773 28.125H34.0664C34.4778 29.6604 34.4778 31.2771 34.0664 32.8125H29.5781C29.6484 32.0359 29.6883 31.25 29.6883 30.4688C29.6883 29.6875 29.6477 28.9016 29.5773 28.125ZM33.5117 26.5625H29.3891C29.1623 24.7939 28.6128 23.0819 27.768 21.5117C29.0255 21.9048 30.1865 22.5575 31.1759 23.4275C32.1653 24.2975 32.9611 25.3656 33.5117 26.5625ZM22.232 21.5117C21.3872 23.0819 20.8377 24.7939 20.6109 26.5625H16.4883C17.0389 25.3656 17.8347 24.2975 18.8241 23.4275C19.8135 22.5575 20.9745 21.9048 22.232 21.5117ZM16.4883 34.375H20.6109C20.8377 36.1436 21.3872 37.8556 22.232 39.4258C20.9745 39.0327 19.8135 38.38 18.8241 37.51C17.8347 36.64 17.0389 35.5719 16.4883 34.375ZM27.768 39.4258C28.6128 37.8556 29.1623 36.1436 29.3891 34.375H33.5117C32.9611 35.5719 32.1653 36.64 31.1759 37.51C30.1865 38.38 29.0255 39.0327 27.768 39.4258ZM44.5312 10.9375C44.5312 10.3194 44.348 9.71525 44.0046 9.20134C43.6612 8.68744 43.1732 8.2869 42.6021 8.05038C42.0311 7.81385 41.4028 7.75197 40.7966 7.87255C40.1904 7.99312 39.6336 8.29075 39.1965 8.72779C38.7595 9.16483 38.4619 9.72165 38.3413 10.3278C38.2207 10.934 38.2826 11.5624 38.5191 12.1334C38.7556 12.7044 39.1562 13.1925 39.6701 13.5358C40.184 13.8792 40.7882 14.0625 41.4062 14.0625C42.2348 14.0617 43.0292 13.7322 43.615 13.1463C44.2009 12.5604 44.5304 11.766 44.5312 10.9375ZM39.8438 10.9375C39.8438 10.6285 39.9354 10.3264 40.1071 10.0694C40.2788 9.81247 40.5228 9.6122 40.8083 9.49394C41.0938 9.37568 41.408 9.34473 41.7111 9.40502C42.0142 9.46531 42.2926 9.61413 42.5111 9.83265C42.7296 10.0512 42.8784 10.3296 42.9387 10.6327C42.999 10.9358 42.9681 11.2499 42.8498 11.5354C42.7315 11.821 42.5313 12.065 42.2743 12.2367C42.0174 12.4084 41.7153 12.5 41.4062 12.5C40.992 12.4996 40.5948 12.3348 40.3019 12.0419C40.0089 11.749 39.8442 11.3518 39.8438 10.9375ZM36.7188 10.9375C36.7188 10.3194 36.5355 9.71525 36.1921 9.20134C35.8487 8.68744 35.3607 8.2869 34.7896 8.05038C34.2186 7.81385 33.5903 7.75197 32.9841 7.87255C32.3779 7.99312 31.8211 8.29075 31.384 8.72779C30.947 9.16483 30.6494 9.72165 30.5288 10.3278C30.4082 10.934 30.4701 11.5624 30.7066 12.1334C30.9432 12.7044 31.3437 13.1925 31.8576 13.5358C32.3715 13.8792 32.9757 14.0625 33.5938 14.0625C34.4223 14.0617 35.2167 13.7322 35.8025 13.1463C36.3884 12.5604 36.7179 11.766 36.7188 10.9375ZM32.0312 10.9375C32.0312 10.6285 32.1229 10.3264 32.2946 10.0694C32.4663 9.81247 32.7103 9.6122 32.9958 9.49394C33.2813 9.37568 33.5955 9.34473 33.8986 9.40502C34.2017 9.46531 34.4801 9.61413 34.6986 9.83265C34.9171 10.0512 35.0659 10.3296 35.1262 10.6327C35.1865 10.9358 35.1556 11.2499 35.0373 11.5354C34.9191 11.821 34.7188 12.065 34.4618 12.2367C34.2049 12.4084 33.9028 12.5 33.5938 12.5C33.1795 12.4996 32.7823 12.3348 32.4894 12.0419C32.1964 11.749 32.0317 11.3518 32.0312 10.9375ZM5.46875 10.9375C5.46958 11.766 5.79908 12.5604 6.38496 13.1463C6.97083 13.7322 7.7652 14.0617 8.59375 14.0625H25.7812C26.6101 14.0625 27.4049 13.7333 27.991 13.1472C28.577 12.5612 28.9062 11.7663 28.9062 10.9375C28.9062 10.1087 28.577 9.31384 27.991 8.72779C27.4049 8.14174 26.6101 7.8125 25.7812 7.8125H8.59375C7.7652 7.81333 6.97083 8.14283 6.38496 8.72871C5.79908 9.31458 5.46958 10.109 5.46875 10.9375ZM27.3438 10.9375C27.3433 11.3518 27.1786 11.749 26.8856 12.0419C26.5927 12.3348 26.1955 12.4996 25.7812 12.5H8.59375C8.17935 12.5 7.78192 12.3354 7.4889 12.0424C7.19587 11.7493 7.03125 11.3519 7.03125 10.9375C7.03125 10.5231 7.19587 10.1257 7.4889 9.83265C7.78192 9.53962 8.17935 9.375 8.59375 9.375H25.7812C26.1955 9.37541 26.5927 9.54017 26.8856 9.8331C27.1786 10.126 27.3433 10.5232 27.3438 10.9375Z" fill="white"/>
</svg>
