<svg width="50" height="50" viewBox="0 0 50 50" fill="none" xmlns="http://www.w3.org/2000/svg">
<path d="M13.5127 12.9207C13.4248 12.8819 13.3301 12.8608 13.234 12.8586C13.138 12.8564 13.0424 12.8731 12.9529 12.9079C12.8633 12.9426 12.7814 12.9946 12.7119 13.061C12.6424 13.1273 12.5867 13.2067 12.5479 13.2946C11.789 15.0138 11.4043 16.8465 11.4043 18.742C11.4043 26.1973 17.4709 32.2627 24.9277 32.2627C32.3846 32.2627 38.4512 26.1973 38.4512 18.742C38.4512 11.2883 32.3846 5.22412 24.9277 5.22412C20.8605 5.22412 17.0476 7.02961 14.4668 10.1778C14.3437 10.3279 14.2854 10.5206 14.3045 10.7137C14.3236 10.9068 14.4186 11.0844 14.5687 11.2074C14.7188 11.3304 14.9115 11.3888 15.1046 11.3697C15.2977 11.3506 15.4753 11.2555 15.5983 11.1055C17.9002 8.29771 21.3008 6.68741 24.9278 6.68741C31.5779 6.68741 36.9881 12.0951 36.9881 18.7421C36.9881 25.3906 31.5779 30.7995 24.9278 30.7995C18.2778 30.7995 12.8676 25.3906 12.8676 18.7421C12.8676 17.0513 13.2105 15.4173 13.8867 13.8855C13.9254 13.7976 13.9465 13.7029 13.9487 13.6068C13.9509 13.5108 13.9342 13.4152 13.8995 13.3256C13.8647 13.236 13.8127 13.1542 13.7463 13.0847C13.68 13.0152 13.6006 12.9595 13.5127 12.9207Z" fill="white"/>
<path d="M16.1746 9.38397C16.1051 9.31758 16.0233 9.26553 15.9337 9.23077C15.8441 9.19602 15.7486 9.17925 15.6525 9.18142C15.5565 9.18359 15.4618 9.20465 15.3739 9.24342C15.286 9.28218 15.2066 9.33788 15.1402 9.40733C13.8416 10.7657 12.8563 12.3582 12.2114 14.1407C9.67496 21.1512 13.316 28.9188 20.328 31.4558C27.34 33.9928 35.1083 30.3532 37.6448 23.3427C40.1807 16.3336 36.5392 8.56721 29.5272 6.03021C25.7027 4.64645 21.503 5.04698 18.0049 7.1293C17.8382 7.22855 17.7177 7.38996 17.67 7.57804C17.6223 7.76611 17.6513 7.96544 17.7505 8.13216C17.8498 8.29889 18.0112 8.41937 18.1992 8.46708C18.3873 8.5148 18.5866 8.48585 18.7534 8.38661C21.8732 6.5295 25.6188 6.17222 29.0295 7.40624C35.2828 9.66874 38.5304 16.5945 36.2689 22.845C34.007 29.0968 27.0792 32.3424 20.8259 30.0799C14.5726 27.8174 11.3254 20.8904 13.5874 14.6386C14.1626 13.0487 15.041 11.6288 16.198 10.4184C16.2644 10.3489 16.3165 10.2671 16.3512 10.1775C16.386 10.0879 16.4027 9.99238 16.4005 9.89632C16.3984 9.80027 16.3773 9.70558 16.3385 9.61767C16.2997 9.52976 16.244 9.45035 16.1746 9.38397Z" fill="white"/>
<path d="M26.8822 15.6469L26.887 15.6293L28.1974 10.5653C28.3594 9.93814 28.1194 9.37452 27.5856 9.12938C27.0284 8.87303 26.3242 9.05427 25.9717 9.54083L19.3922 18.0802L19.3856 18.0891L19.3657 18.1156C18.7653 18.9199 18.464 19.3237 18.7258 19.8492C18.9781 20.3557 19.4984 20.3582 20.1009 20.3612L23.6865 20.3808C23.7085 20.3804 23.7293 20.38 23.7507 20.3783C23.7901 20.375 23.8295 20.3724 23.869 20.3704C23.8441 20.4465 23.8171 20.5252 23.7933 20.5945L21.8392 26.3972C21.5351 27.1309 21.7914 27.8901 22.4703 28.2532C22.6868 28.369 22.9425 28.4331 23.2072 28.4331C23.71 28.4331 24.2454 28.2018 24.6065 27.6535L28.8283 21.9316L28.8286 21.931L31.101 18.8458C31.1419 18.7906 31.1842 18.735 31.2262 18.6798C31.5777 18.218 32.0151 17.6435 31.7129 17.0255C31.4057 16.3973 30.6122 16.3889 30.3057 16.3857L27.0004 16.3858L26.9893 16.3859C26.8754 16.3872 26.7601 16.3885 26.6532 16.389L26.6553 16.3822C26.719 16.1854 26.7984 15.9404 26.8822 15.6469ZM27.0066 17.849L30.0197 17.849C29.9874 17.8914 29.9553 17.934 29.9235 17.9771L27.6508 21.0628L23.4163 26.8023C23.4067 26.8154 23.3975 26.8287 23.3888 26.8424C23.3549 26.8952 23.3001 26.9605 23.2302 26.9718C23.2131 26.9746 23.198 26.9738 23.1856 26.9714C23.1877 26.9653 23.1904 26.9587 23.1937 26.9513C23.2024 26.9315 23.2101 26.9114 23.217 26.8909L25.1336 21.1975L25.1771 21.0703C25.3778 20.4867 25.5852 19.8834 25.1861 19.3703C24.8191 18.8985 24.1848 18.8776 23.6634 18.9175L20.6073 18.9007L26.5123 11.2368L25.4728 15.2538C25.3971 15.5187 25.326 15.7378 25.2632 15.9314C25.0723 16.5206 24.9216 16.986 25.2386 17.4164C25.5697 17.866 26.0798 17.8601 27.0066 17.849Z" fill="white"/>
<path d="M22.2753 50C22.119 49.9999 21.9668 49.9498 21.8411 49.8569C21.7153 49.7641 21.6226 49.6335 21.5765 49.4842L20.6388 46.4483C20.2932 45.5061 20.2249 45.402 19.4572 45.402H14.8334C14.3557 45.402 13.8873 45.3752 13.4413 45.3222C10.6326 44.9652 8.91037 43.3588 8.31671 40.5472L6.62477 32.6683L4.61921 31.8881C3.5821 31.5815 2.86133 30.6197 2.86133 29.5353C2.86055 29.0335 3.0144 28.5437 3.30195 28.1325C3.3118 28.1183 3.32214 28.1046 3.33297 28.0912L5.71027 25.1486C6.93009 23.6386 7.68148 21.8211 7.88321 19.8927C8.09303 17.8855 8.30061 16.0738 8.50019 14.5079C9.11893 9.65015 11.9814 5.30807 16.1575 2.89302C22.3484 -0.68752 29.9148 -0.960357 36.3977 2.16308C39.1578 3.49292 41.5715 5.40249 43.378 7.68537C45.3135 10.1314 46.5256 12.9139 46.9805 15.9555C46.9947 16.0506 46.9901 16.1474 46.9668 16.2407C46.9436 16.3339 46.9022 16.4216 46.8451 16.4989C46.788 16.5761 46.7162 16.6413 46.6338 16.6908C46.5514 16.7403 46.4602 16.773 46.3651 16.7872C45.9665 16.8476 45.5931 16.5715 45.5335 16.1719C44.7156 10.7045 41.1543 6.07888 35.7626 3.48112C29.7165 0.567998 22.6612 0.821619 16.8901 4.15936C13.1068 6.34732 10.5131 10.285 9.95158 14.6925C9.75356 16.2476 9.54716 18.0483 9.33841 20.0447C9.10732 22.2547 8.24628 24.3375 6.84844 26.0678L4.48957 28.9878C4.38162 29.1499 4.32418 29.3404 4.32453 29.5352C4.32453 29.9783 4.62263 30.3705 5.04949 30.4893C5.0729 30.4957 5.09612 30.5035 5.11885 30.5123L7.52268 31.4475C7.63557 31.4914 7.73579 31.5627 7.81434 31.6549C7.89288 31.7471 7.94729 31.8573 7.97266 31.9758L9.74781 40.2422C10.2121 42.441 11.4423 43.593 13.6198 43.8698C14.0027 43.9152 14.4131 43.9387 14.8333 43.9387H19.4571C21.1471 43.9387 21.585 44.7775 22.019 45.9623C22.0234 45.9742 22.0274 45.986 22.0311 45.998L22.9745 49.052C23.0029 49.1438 23.0129 49.2403 23.0039 49.336C22.995 49.4316 22.9673 49.5246 22.9225 49.6096C22.8776 49.6945 22.8165 49.7698 22.7425 49.8312C22.6686 49.8925 22.5833 49.9387 22.4915 49.967C22.4215 49.9888 22.3486 49.9999 22.2753 50ZM37.7059 49.8988C37.6098 49.8988 37.5146 49.8799 37.4259 49.8432C37.3371 49.8064 37.2564 49.7525 37.1885 49.6846C37.1206 49.6166 37.0667 49.536 37.0299 49.4472C36.9932 49.3585 36.9742 49.2633 36.9743 49.1672V40.453C36.9743 38.2961 37.7166 36.1991 39.0645 34.5483C43.1325 29.566 45.2147 20.9776 45.5335 16.1719C45.5601 15.7686 45.9091 15.4615 46.3118 15.4903C46.4076 15.4967 46.5013 15.5218 46.5875 15.5644C46.6736 15.6069 46.7505 15.666 46.8138 15.7383C46.8771 15.8106 46.9255 15.8946 46.9563 15.9856C46.9871 16.0766 46.9868 16.5545 46.9805 16.6504C46.6411 21.7656 44.462 30.2511 40.1978 35.4736C39.0625 36.864 38.4374 38.6323 38.4374 40.453V49.1672C38.4374 49.2633 38.4185 49.3584 38.3817 49.4472C38.345 49.536 38.2911 49.6166 38.2232 49.6846C38.1552 49.7525 38.0746 49.8064 37.9858 49.8432C37.8971 49.8799 37.8019 49.8988 37.7059 49.8988Z" fill="white"/>
</svg>
