<svg width="46" height="50" viewBox="0 0 46 50" fill="none" xmlns="http://www.w3.org/2000/svg">
<path d="M44.618 26.8197C44.289 26.4906 43.8984 26.2296 43.4685 26.0515C43.0386 25.8734 42.5778 25.7817 42.1125 25.7817C41.6472 25.7817 41.1864 25.8734 40.7565 26.0515C40.3266 26.2296 39.936 26.4906 39.607 26.8197L33.5422 32.8845C33.2761 32.3919 32.8821 31.9801 32.4018 31.6925C31.9214 31.4049 31.3724 31.2521 30.8125 31.2501H21.9406C21.1768 30.3257 20.2283 29.571 19.1559 29.0345C18.0834 28.498 16.9107 28.1915 15.7129 28.1346C14.515 28.0778 13.3186 28.2718 12.2001 28.7043C11.0817 29.1368 10.0659 29.7983 9.21798 30.6462L5.81252 34.0517L4.80236 33.0415C4.65585 32.8951 4.45718 32.8128 4.25002 32.8128C4.04286 32.8128 3.84418 32.8951 3.69767 33.0415L0.572672 36.1665C0.426211 36.313 0.343933 36.5117 0.343933 36.7189C0.343933 36.926 0.426211 37.1247 0.572672 37.2712L13.0727 49.7712C13.2192 49.9177 13.4179 50 13.625 50C13.8322 50 14.0309 49.9177 14.1774 49.7712L17.3024 46.6462C17.4488 46.4997 17.5311 46.301 17.5311 46.0939C17.5311 45.8867 17.4488 45.688 17.3024 45.5415L16.2922 44.5314L17.1688 43.6548C17.6092 43.2173 18.2042 42.9709 18.825 42.9689H30.2438C31.2702 42.9716 32.287 42.7707 33.2352 42.3778C34.1835 41.9849 35.0443 41.4077 35.768 40.6798L44.618 31.8306C44.947 31.5016 45.2081 31.111 45.3862 30.6811C45.5642 30.2512 45.6559 29.7904 45.6559 29.3251C45.6559 28.8598 45.5642 28.399 45.3862 27.9692C45.2081 27.5393 44.947 27.1487 44.618 26.8197ZM13.625 48.1142L2.2297 36.7189L4.25002 34.6986L15.6453 46.0939L13.625 48.1142ZM43.5133 30.7259L34.6641 39.5759C34.0849 40.1582 33.396 40.6198 32.6373 40.934C31.8785 41.2482 31.065 41.4087 30.2438 41.4064H18.8258C18.3127 41.405 17.8044 41.5053 17.3304 41.7017C16.8563 41.898 16.4259 42.1864 16.0641 42.5501L15.1875 43.4267L6.9172 35.1564L10.3227 31.7509C11.0257 31.048 11.8696 30.5018 12.7988 30.1483C13.728 29.7948 14.7215 29.6419 15.714 29.6998C16.7065 29.7576 17.6755 30.0249 18.5573 30.484C19.4392 30.943 20.2139 31.5836 20.8305 32.3634L20.9508 32.5158C21.024 32.6083 21.1171 32.6832 21.2234 32.7346C21.3296 32.786 21.4461 32.8127 21.5641 32.8126H30.8125C31.2269 32.8126 31.6243 32.9772 31.9174 33.2703C32.2104 33.5633 32.375 33.9607 32.375 34.3751C32.375 34.7895 32.2104 35.187 31.9174 35.48C31.6243 35.773 31.2269 35.9376 30.8125 35.9376H19.875C19.6678 35.9376 19.4691 36.0199 19.3226 36.1665C19.1761 36.313 19.0938 36.5117 19.0938 36.7189C19.0938 36.9261 19.1761 37.1248 19.3226 37.2713C19.4691 37.4178 19.6678 37.5001 19.875 37.5001H30.8125C31.5767 37.4976 32.3134 37.2145 32.8827 36.7047C33.452 36.1949 33.8143 35.4938 33.9008 34.7345L40.7117 27.9243C41.0891 27.564 41.5907 27.3629 42.1125 27.3629C42.6343 27.3629 43.136 27.564 43.5133 27.9243C43.8847 28.2959 44.0934 28.7998 44.0934 29.3251C44.0934 29.8505 43.8847 30.3544 43.5133 30.7259Z" fill="white"/>
<path d="M13.425 15.9203C13.4141 15.936 13.3977 15.9438 13.3875 15.9602C13.3852 15.9649 13.3852 15.9696 13.3828 15.9735C11.0066 18.9913 9.71594 22.7215 9.71875 26.5625C9.71875 26.6906 9.71954 26.8172 9.72813 26.9453C9.74197 27.1425 9.83003 27.3271 9.97457 27.4619C10.1191 27.5968 10.3094 27.6718 10.507 27.6719C10.525 27.6719 10.5438 27.6711 10.5617 27.6696C10.7683 27.6551 10.9606 27.5593 11.0966 27.4032C11.2325 27.247 11.3009 27.0433 11.2867 26.8367C11.2813 26.7446 11.2813 26.6539 11.2813 26.5625C11.2819 23.2788 12.3241 20.0798 14.2578 17.4258C16.4672 18.8688 17.7602 20.2617 17.8133 21.3008C17.7315 22.2884 17.4196 23.243 16.9023 24.0883C16.6567 24.585 16.4254 25.0885 16.2086 25.5985C16.1662 25.6937 16.1433 25.7964 16.1412 25.9006C16.1391 26.0048 16.1578 26.1084 16.1964 26.2052C16.2349 26.3021 16.2924 26.3902 16.3656 26.4645C16.4387 26.5387 16.5259 26.5976 16.6222 26.6377C16.7184 26.6777 16.8217 26.6981 16.9259 26.6976C17.0301 26.6971 17.1332 26.6758 17.229 26.6348C17.3249 26.5939 17.4116 26.5342 17.484 26.4593C17.5564 26.3843 17.6131 26.2957 17.6508 26.1985C17.8617 25.6922 18.0914 25.2188 18.3094 24.7688C18.9577 23.6938 19.3237 22.4724 19.3734 21.218C19.293 19.6422 17.8938 17.9571 15.2406 16.2039C16.4368 14.8497 17.8577 13.7119 19.4406 12.8406C20.9617 15.8063 22.793 17.3711 24.7922 17.3711C24.9376 17.3712 25.0829 17.3631 25.2273 17.3469C26.6126 17.2587 27.9347 16.7357 29.0055 15.8524C29.693 15.3211 29.9781 15.1008 31.5547 15.6516C33.0281 16.1649 34.5805 15.5219 35.9867 13.8531C37.2044 14.7254 38.2905 15.7681 39.2117 16.9492C38.2712 17.9536 37.5312 19.1283 37.0313 20.4102C36.3648 21.8649 35.9141 22.7617 35.0859 22.8391C34.5476 22.8725 34.0076 22.8702 33.4695 22.8321C31.4086 22.7305 28.8445 22.6102 27.0133 26.211C26.5981 27.0221 26.3191 27.896 26.1875 28.7977C26.1732 28.8993 26.179 29.0028 26.2046 29.1021C26.2303 29.2015 26.2753 29.2948 26.337 29.3768C26.3988 29.4588 26.476 29.5278 26.5645 29.5799C26.6529 29.632 26.7507 29.6662 26.8523 29.6805C26.8886 29.6855 26.9251 29.6878 26.9617 29.6875C27.1501 29.6875 27.3321 29.6194 27.4742 29.4958C27.6163 29.3722 27.709 29.2014 27.7352 29.0149C27.8412 28.2832 28.0683 27.5743 28.407 26.9172C29.7789 24.2196 31.3758 24.2992 33.3953 24.393C34.006 24.4358 34.6189 24.4365 35.2297 24.3953C37.0016 24.2281 37.7391 22.618 38.4516 21.061C38.8553 20.0392 39.4209 19.089 40.1266 18.2469C41.1716 19.9005 41.8939 21.737 42.2555 23.6594C42.2737 23.7608 42.3119 23.8575 42.3677 23.9441C42.4235 24.0307 42.4959 24.1054 42.5807 24.1639C42.6654 24.2224 42.761 24.2635 42.8617 24.285C42.9624 24.3064 43.0664 24.3077 43.1677 24.2888C43.269 24.2699 43.3655 24.2312 43.4517 24.1748C43.5379 24.1185 43.6122 24.0456 43.6701 23.9605C43.7281 23.8753 43.7687 23.7796 43.7895 23.6787C43.8103 23.5778 43.8109 23.4738 43.7914 23.3727C43.0725 19.5714 41.091 16.1242 38.1682 13.5898C35.2453 11.0553 31.5523 9.58199 27.6875 9.40862V8.5469C27.6876 8.10937 27.8108 7.68069 28.0428 7.30978C28.2749 6.93888 28.6066 6.64069 29 6.44924C29.4346 6.95575 29.9736 7.36236 30.58 7.64121C31.1864 7.92007 31.8459 8.06458 32.5133 8.06487C33.1462 8.05938 33.7736 7.94658 34.3688 7.73127C35.3651 7.38243 36.31 6.9013 37.1781 6.3008C37.5541 5.96345 38.0166 5.73747 38.5137 5.64819C39.0109 5.55891 39.5231 5.60986 39.993 5.79533C40.1513 5.83627 40.3186 5.82646 40.4711 5.76729C40.6236 5.70812 40.7537 5.60257 40.843 5.46553C40.9323 5.32848 40.9764 5.16686 40.9689 5.00345C40.9615 4.84004 40.903 4.68308 40.8016 4.55471C40.6328 4.34143 36.6555 -0.640603 32.8266 0.0711159C29.1305 0.760178 28.6977 3.00158 28.5172 4.94612C27.8763 5.21759 27.32 5.656 26.9063 6.21565C26.4926 5.65571 25.9363 5.21702 25.2953 4.94533C25.1148 3.00158 24.682 0.760178 20.9859 0.0703347C17.1563 -0.646072 13.1789 4.34143 13.0109 4.55471C12.9099 4.6831 12.8516 4.83996 12.8443 5.0032C12.8371 5.16645 12.8811 5.32786 12.9704 5.46474C13.0597 5.60161 13.1896 5.70704 13.3419 5.76621C13.4942 5.82537 13.6613 5.83529 13.8195 5.79455C14.2894 5.60899 14.8016 5.55799 15.2988 5.64727C15.796 5.73655 16.2585 5.96259 16.6344 6.30002C17.5025 6.90052 18.4475 7.38165 19.4438 7.73049C20.0389 7.94601 20.6663 8.05881 21.2992 8.06408C21.9666 8.06375 22.6261 7.91921 23.2325 7.64036C23.8389 7.36151 24.3778 6.95493 24.8125 6.44846C25.206 6.63996 25.5378 6.93828 25.7699 7.30933C26.002 7.68039 26.125 8.10924 26.125 8.5469V9.39534C23.6634 9.5058 21.2545 10.146 19.0628 11.2722C16.8711 12.3984 14.9481 13.9833 13.425 15.9203ZM33.1125 1.60705C34.8242 1.28518 36.8703 2.77112 38.2641 4.10237C37.5578 4.24909 36.8939 4.55355 36.3219 4.99299C35.5593 5.52351 34.7283 5.94821 33.8516 6.25549C33.3108 6.49152 32.7153 6.57296 32.131 6.49076C31.5468 6.40856 30.9968 6.16594 30.5422 5.78987L32.607 4.92268C32.7049 4.8853 32.7942 4.82863 32.8697 4.75603C32.9452 4.68343 33.0054 4.59639 33.0466 4.50008C33.0877 4.40378 33.1091 4.30017 33.1095 4.19542C33.1098 4.09068 33.0891 3.98694 33.0485 3.89036C33.008 3.79379 32.9484 3.70636 32.8734 3.63326C32.7984 3.56017 32.7094 3.50292 32.6118 3.4649C32.5142 3.42688 32.41 3.40887 32.3053 3.41196C32.2006 3.41504 32.0975 3.43914 32.0023 3.48284L30.1727 4.2508C30.3898 2.91487 30.9383 2.01252 33.1125 1.60705ZM19.9609 6.25549C19.0843 5.94846 18.2533 5.52402 17.4906 4.99377C16.9184 4.55333 16.2539 4.24829 15.5469 4.10158C16.9375 2.77033 18.9781 1.28596 20.7008 1.60627C22.875 2.01174 23.4234 2.91408 23.6406 4.25002L21.8109 3.48205C21.7161 3.44088 21.614 3.41895 21.5106 3.41752C21.4073 3.4161 21.3046 3.43521 21.2087 3.47374C21.1127 3.51228 21.0254 3.56947 20.9517 3.64201C20.8781 3.71456 20.8195 3.801 20.7795 3.89633C20.7395 3.99167 20.7188 4.094 20.7186 4.19739C20.7184 4.30078 20.7388 4.40318 20.7785 4.49865C20.8182 4.59412 20.8764 4.68076 20.9499 4.75354C21.0233 4.82633 21.1104 4.88382 21.2063 4.92268L23.2711 5.78987C22.8163 6.16549 22.2662 6.40776 21.6821 6.48981C21.0979 6.57187 20.5024 6.49049 19.9617 6.25471L19.9609 6.25549ZM32.0703 14.1766C29.8594 13.4047 29.0422 13.8492 28.0492 14.6164C27.2044 15.3219 26.1538 15.735 25.0547 15.7938C23.2031 16.0055 21.7141 13.8594 20.8375 12.1649C23.0515 11.2315 25.4509 10.8213 27.8492 10.9662C30.2475 11.111 32.5801 11.807 34.6656 13C33.9883 13.7617 33.0336 14.5125 32.0703 14.1766Z" fill="white"/>
</svg>
