<svg width="48" height="46" viewBox="0 0 48 46" fill="none" xmlns="http://www.w3.org/2000/svg">
<path d="M44.2172 0.620605H3.78281C2.92894 0.621571 2.11032 0.961234 1.50659 1.56506C0.902858 2.16889 0.563327 2.98756 0.5625 3.84144V35.169C0.563465 36.0228 0.903057 36.8414 1.50677 37.4451C2.11049 38.0488 2.92903 38.3884 3.78281 38.3894H15.6469V40.6446H12.3245C11.6969 40.6453 11.0952 40.8949 10.6514 41.3387C10.2076 41.7824 9.95798 42.3841 9.95729 43.0118V44.7701C9.95743 44.9315 10.0216 45.0863 10.1358 45.2005C10.2499 45.3146 10.4047 45.3788 10.5661 45.3789H37.4344C37.5958 45.3788 37.7506 45.3146 37.8648 45.2005C37.9789 45.0863 38.0431 44.9315 38.0432 44.7701V43.0118C38.0425 42.3841 37.7929 41.7824 37.3491 41.3387C36.9054 40.8949 36.3036 40.6453 35.676 40.6446H32.3536V38.3894H44.2177C45.0715 38.3884 45.89 38.0488 46.4938 37.4451C47.0975 36.8414 47.4371 36.0228 47.438 35.169V3.84144C47.4369 2.98756 47.0972 2.16897 46.4934 1.56518C45.8897 0.961399 45.0711 0.621708 44.2172 0.620605ZM3.78281 1.83831H44.2172C44.7482 1.839 45.2572 2.05028 45.6327 2.42581C46.0081 2.80133 46.2192 3.31044 46.2198 3.84144V32.6607H1.78021V3.84144C1.78076 3.31044 1.99191 2.80133 2.36733 2.42581C2.74276 2.05028 3.25181 1.839 3.78281 1.83831ZM36.8255 43.0118V44.1612H11.1745V43.0118C11.1749 42.707 11.2961 42.4149 11.5116 42.1994C11.7271 41.9839 12.0192 41.8627 12.324 41.8623H35.675C35.9799 41.8624 36.2723 41.9835 36.488 42.199C36.7037 42.4146 36.8251 42.7068 36.8255 43.0118ZM31.1354 40.6446H16.8646V38.3894H31.1354V40.6446ZM44.2172 37.1717H3.78281C3.2519 37.171 2.74293 36.9598 2.36752 36.5843C1.99211 36.2089 1.7809 35.7 1.78021 35.169V33.8779H46.2203V35.169C46.2195 35.7 46.0082 36.209 45.6327 36.5844C45.2572 36.9598 44.7482 37.171 44.2172 37.1717ZM25.924 35.5248C25.9238 35.6862 25.8596 35.841 25.7455 35.9551C25.6313 36.0693 25.4765 36.1335 25.3151 36.1336H22.6849C22.5278 36.1271 22.3793 36.0601 22.2704 35.9467C22.1615 35.8332 22.1007 35.682 22.1007 35.5248C22.1007 35.3675 22.1615 35.2164 22.2704 35.1029C22.3793 34.9894 22.5278 34.9224 22.6849 34.9159H25.3151C25.4765 34.9161 25.6313 34.9803 25.7455 35.0944C25.8596 35.2086 25.9238 35.3633 25.924 35.5248ZM8.08021 27.2847C8.22656 27.4003 8.41771 27.442 8.59896 27.3987C14.2896 26.0378 19.188 27.4711 23.5734 31.7815C23.5885 31.7966 23.6057 31.8076 23.6224 31.8206C23.637 31.8321 23.6505 31.8456 23.6656 31.8555C23.6849 31.8685 23.7057 31.8774 23.7266 31.8878C23.7417 31.8956 23.7557 31.905 23.7714 31.9112C23.7953 31.9211 23.8208 31.9269 23.8458 31.9336C23.8589 31.9368 23.8708 31.9425 23.8839 31.9451C23.9606 31.9597 24.0394 31.9597 24.1161 31.9451C24.1286 31.9425 24.1406 31.9373 24.1531 31.9341C24.1786 31.9274 24.2042 31.9216 24.2286 31.9112C24.2438 31.905 24.2573 31.8961 24.2719 31.8888C24.2927 31.8784 24.3146 31.8685 24.3344 31.8555C24.3495 31.8456 24.3625 31.8326 24.3771 31.8211C24.3938 31.8081 24.4109 31.7966 24.4266 31.781C28.2344 28.0383 32.4026 26.4763 37.1719 27.0055C37.3324 27.0233 37.4934 26.9766 37.6195 26.8758C37.7456 26.7749 37.8265 26.628 37.8443 26.4675C37.8621 26.307 37.8154 26.146 37.7145 26.0199C37.6136 25.8938 37.4668 25.8129 37.3063 25.7951C32.4016 25.2508 27.9276 26.8352 24.0005 30.5039C21.8526 28.4972 19.5333 27.1029 17.0979 26.3571C14.5901 25.5888 11.8911 25.4857 9.06615 26.0493V6.13519C9.83379 6.07909 10.6032 6.05095 11.3729 6.05081V23.8477C11.3732 23.9425 11.3956 24.0358 11.4383 24.1205C11.481 24.2051 11.5427 24.2786 11.6187 24.3352C11.6948 24.3918 11.7829 24.4299 11.8762 24.4466C11.9695 24.4632 12.0654 24.4579 12.1563 24.431C16.4651 23.1404 20.1844 24.5138 23.5276 28.6305C23.5848 28.7006 23.6568 28.7572 23.7385 28.796C23.8202 28.8348 23.9095 28.8549 24 28.8549C24.0905 28.8549 24.1798 28.8348 24.2615 28.796C24.3432 28.7572 24.4153 28.7006 24.4724 28.6305C26.4974 26.1373 28.7146 24.6279 31.0625 24.1435C31.2153 24.1056 31.3475 24.0101 31.4314 23.8769C31.5153 23.7437 31.5444 23.5832 31.5126 23.4291C31.4808 23.2749 31.3906 23.139 31.2609 23.0499C31.1312 22.9607 30.972 22.9252 30.8167 22.9508C28.6083 23.406 26.526 24.6472 24.6089 26.6404V7.8904C27.0948 4.75498 30.6333 3.42373 35.4094 3.83206V10.0899C35.4159 10.247 35.4829 10.3955 35.5963 10.5044C35.7098 10.6133 35.861 10.6741 36.0182 10.6741C36.1755 10.6741 36.3267 10.6133 36.4401 10.5044C36.5536 10.3955 36.6206 10.247 36.6271 10.0899V6.05186C37.3968 6.05201 38.1662 6.08015 38.9339 6.13623V13.9149C38.9404 14.072 39.0073 14.2205 39.1208 14.3294C39.2343 14.4383 39.3855 14.4991 39.5427 14.4991C39.7 14.4991 39.8511 14.4383 39.9646 14.3294C40.0781 14.2205 40.1451 14.072 40.1516 13.9149V5.57321C40.1516 5.25759 39.9104 4.99456 39.5964 4.96696C38.6091 4.87848 37.6183 4.83382 36.6271 4.83311V3.27998C36.627 3.13016 36.5717 2.98562 36.4718 2.87398C36.3719 2.76234 36.2343 2.69142 36.0854 2.67477C33.2302 2.35863 30.7078 2.61696 28.5865 3.44248C26.8224 4.12894 25.2828 5.2279 24 6.71384C22.7172 5.2279 21.1776 4.12894 19.4135 3.44248C17.2922 2.61696 14.7693 2.35863 11.9146 2.67477C11.7657 2.69142 11.6281 2.76234 11.5282 2.87398C11.4283 2.98562 11.373 3.13016 11.3729 3.27998V4.83363C10.3817 4.8346 9.39096 4.87926 8.40365 4.96748C8.25213 4.981 8.11115 5.0507 8.00842 5.16288C7.90568 5.27507 7.84862 5.42161 7.84844 5.57373V26.8071C7.84844 26.993 7.93385 27.169 8.08021 27.2847ZM12.5906 3.83154C17.3661 3.42321 20.9052 4.75446 23.3917 7.88988V26.6368C20.2068 23.3258 16.5828 22.1227 12.5906 23.055V3.83154ZM14.0953 8.67061C14.0999 8.50925 14.1684 8.35632 14.2857 8.24539C14.403 8.13446 14.5595 8.0746 14.7208 8.07894C17.387 8.15342 19.7068 8.83936 21.6161 10.1175C21.7437 10.2101 21.8305 10.3485 21.8582 10.5037C21.8859 10.6589 21.8524 10.8188 21.7646 10.9498C21.6769 11.0808 21.5419 11.1727 21.3878 11.2062C21.2338 11.2397 21.0727 11.2122 20.9385 11.1295C19.199 9.96488 17.1536 9.3654 14.6865 9.29613C14.5251 9.2915 14.3723 9.22301 14.2614 9.10572C14.1506 8.98843 14.0908 8.83193 14.0953 8.67061ZM14.0953 13.4769C14.0999 13.3155 14.1684 13.1626 14.2857 13.0516C14.403 12.9407 14.5595 12.8808 14.7208 12.8852C17.387 12.9597 19.7068 13.6456 21.6161 14.9237C21.7437 15.0163 21.8305 15.1547 21.8582 15.3099C21.8859 15.4651 21.8524 15.625 21.7646 15.756C21.6769 15.887 21.5419 15.9789 21.3878 16.0124C21.2338 16.0459 21.0727 16.0184 20.9385 15.9357C19.199 14.7711 17.1536 14.1716 14.6865 14.1024C14.5251 14.0977 14.3723 14.0293 14.2614 13.912C14.1506 13.7947 14.0908 13.6382 14.0953 13.4769ZM20.9391 20.742C19.1995 19.5774 17.1547 18.9779 14.687 18.9086C14.5302 18.8976 14.3838 18.8265 14.2782 18.71C14.1727 18.5936 14.1162 18.4409 14.1205 18.2838C14.1249 18.1267 14.1898 17.9774 14.3017 17.867C14.4135 17.7566 14.5637 17.6937 14.7208 17.6914C17.387 17.7659 19.7068 18.4519 21.6161 19.73C21.7427 19.8229 21.8286 19.9611 21.8558 20.1157C21.8829 20.2704 21.8494 20.4296 21.7621 20.5601C21.6747 20.6906 21.5404 20.7824 21.3871 20.8163C21.2337 20.8501 21.0732 20.8235 20.9391 20.742ZM32.1854 14.4128L40.9526 15.7727C41.0763 15.7918 41.191 15.8485 41.2813 15.9352C41.3715 16.0218 41.4329 16.1342 41.457 16.257C41.4811 16.3797 41.4669 16.5069 41.4161 16.6213C41.3654 16.7357 41.2807 16.8316 41.1734 16.8961L39.2063 18.0805L43.6266 22.493C43.6846 22.5492 43.731 22.6163 43.7628 22.6905C43.7947 22.7648 43.8114 22.8446 43.8121 22.9254C43.8128 23.0062 43.7975 23.0863 43.7669 23.1611C43.7363 23.2358 43.6912 23.3038 43.6341 23.3609C43.577 23.4181 43.5091 23.4633 43.4344 23.494C43.3596 23.5246 43.2795 23.5401 43.1988 23.5395C43.118 23.5389 43.0381 23.5222 42.9639 23.4905C42.8896 23.4587 42.8224 23.4125 42.7661 23.3545L37.7948 18.3914C37.7296 18.3259 37.6801 18.2465 37.6501 18.1591C37.6201 18.0717 37.6103 17.9787 37.6215 17.8869C37.6327 17.7952 37.6645 17.7072 37.7147 17.6296C37.7648 17.552 37.8319 17.4867 37.9109 17.4388L39.1073 16.7185L32.8229 15.744L33.8083 22.0269L34.5266 20.8295C34.574 20.75 34.639 20.6825 34.7165 20.6319C34.794 20.5814 34.882 20.5492 34.9738 20.5379C35.0657 20.5265 35.1589 20.5363 35.2464 20.5664C35.3338 20.5965 35.4133 20.6463 35.4786 20.7118L40.45 25.6748C40.5081 25.7309 40.5544 25.7981 40.5862 25.8723C40.6181 25.9466 40.6349 26.0264 40.6356 26.1072C40.6363 26.1879 40.6209 26.2681 40.5903 26.3428C40.5598 26.4176 40.5146 26.4856 40.4575 26.5427C40.4004 26.5999 40.3326 26.6451 40.2578 26.6758C40.1831 26.7064 40.103 26.7219 40.0222 26.7213C39.9414 26.7207 39.8616 26.704 39.7873 26.6722C39.713 26.6405 39.6458 26.5942 39.5896 26.5362L35.1698 22.1237L33.9891 24.093C33.9247 24.2002 33.8289 24.285 33.7147 24.3358C33.6005 24.3866 33.4734 24.4011 33.3507 24.3772C33.228 24.3533 33.1156 24.2922 33.0288 24.2022C32.942 24.1123 32.8851 23.9977 32.8656 23.8743L31.4911 15.1091C31.476 15.0144 31.4835 14.9175 31.513 14.8263C31.5425 14.735 31.5932 14.6521 31.6609 14.5841C31.7286 14.5162 31.8114 14.4653 31.9026 14.4355C31.9938 14.4057 32.0907 14.398 32.1854 14.4128ZM29.8563 13.642L28.7026 12.4904C28.6445 12.4342 28.5982 12.3671 28.5664 12.2929C28.5345 12.2186 28.5177 12.1388 28.517 12.058C28.5163 11.9772 28.5317 11.8971 28.5623 11.8223C28.5928 11.7476 28.638 11.6796 28.6951 11.6225C28.7522 11.5653 28.8201 11.5201 28.8948 11.4894C28.9695 11.4588 29.0496 11.4433 29.1304 11.4439C29.2112 11.4445 29.291 11.4612 29.3653 11.4929C29.4396 11.5247 29.5068 11.5709 29.563 11.6289L30.7167 12.7805C30.7747 12.8367 30.8211 12.9038 30.8529 12.978C30.8848 13.0523 30.9015 13.1321 30.9022 13.2129C30.9029 13.2937 30.8876 13.3738 30.857 13.4486C30.8264 13.5233 30.7813 13.5913 30.7242 13.6484C30.6671 13.7056 30.5992 13.7508 30.5245 13.7815C30.4497 13.8121 30.3696 13.8276 30.2889 13.827C30.2081 13.8264 30.1282 13.8097 30.054 13.778C29.9797 13.7462 29.9125 13.7 29.8563 13.642ZM32.1375 12.1904L32.1365 10.5607C32.1364 10.4808 32.1521 10.4016 32.1826 10.3277C32.2131 10.2538 32.2579 10.1866 32.3144 10.13C32.3709 10.0734 32.438 10.0285 32.5118 9.99788C32.5857 9.96722 32.6648 9.9514 32.7448 9.95134C32.9061 9.95147 33.0614 10.0156 33.1755 10.1296C33.2896 10.2437 33.3539 10.3983 33.3542 10.5597L33.3552 12.1894C33.3553 12.2693 33.3396 12.3485 33.3091 12.4224C33.2785 12.4963 33.2337 12.5634 33.1773 12.62C33.1208 12.6766 33.0537 12.7215 32.9798 12.7522C32.906 12.7828 32.8268 12.7987 32.7469 12.7987C32.6669 12.7988 32.5873 12.7831 32.5134 12.7526C32.4395 12.722 32.3724 12.6772 32.3159 12.6207C32.2593 12.5642 32.2145 12.4972 32.1839 12.4233C32.1533 12.3495 32.1375 12.2703 32.1375 12.1904ZM35.2078 13.8159C35.0874 13.8159 34.9698 13.7802 34.8697 13.7133C34.7696 13.6465 34.6916 13.5514 34.6455 13.4402C34.5994 13.329 34.5873 13.2067 34.6107 13.0886C34.6341 12.9705 34.692 12.862 34.7771 12.7769L35.9286 11.6232C36.0427 11.509 36.1976 11.4447 36.359 11.4446C36.5205 11.4445 36.6753 11.5086 36.7896 11.6227C36.9038 11.7368 36.9681 11.8916 36.9682 12.0531C36.9683 12.2145 36.9042 12.3694 36.7901 12.4836L35.6385 13.6373C35.5821 13.6941 35.515 13.7391 35.4411 13.7697C35.3671 13.8004 35.2879 13.8161 35.2078 13.8159ZM28.7089 19.7175C28.5946 19.6034 28.5304 19.4486 28.5303 19.2871C28.5302 19.1257 28.5943 18.9708 28.7083 18.8565L29.8599 17.7029C29.9164 17.6463 29.9835 17.6015 30.0573 17.5708C30.1312 17.5402 30.2103 17.5244 30.2903 17.5243C30.3702 17.5243 30.4494 17.54 30.5233 17.5705C30.5971 17.6011 30.6643 17.6459 30.7208 17.7024C30.7774 17.7589 30.8223 17.826 30.8529 17.8998C30.8836 17.9736 30.8994 18.0528 30.8994 18.1327C30.8995 18.2127 30.8838 18.2919 30.8532 18.3657C30.8227 18.4396 30.7779 18.5067 30.7214 18.5633L29.5698 19.717C29.5133 19.7737 29.4462 19.8187 29.3723 19.8494C29.2984 19.88 29.2191 19.8957 29.1391 19.8956C28.9778 19.8953 28.8231 19.8313 28.7089 19.7175ZM27.6385 15.0659L29.2682 15.0644C29.4254 15.0708 29.5744 15.1377 29.6834 15.2511C29.7923 15.3646 29.8531 15.5157 29.8532 15.673C29.8533 15.8302 29.7925 15.9814 29.6837 16.0949C29.5749 16.2084 29.4264 16.2755 29.2693 16.2821L27.6396 16.2836C27.4825 16.2772 27.3334 16.2103 27.2245 16.0968C27.1155 15.9834 27.0547 15.8323 27.0546 15.675C27.0545 15.5178 27.1153 15.3666 27.2241 15.2531C27.3329 15.1395 27.4814 15.0725 27.6385 15.0659Z" fill="white"/>
</svg>
