<svg width="26" height="26" viewBox="0 0 26 26" fill="none" xmlns="http://www.w3.org/2000/svg">
<path d="M24.5999 12.2341L17.0166 4.65078C16.8122 4.45345 16.5386 4.34425 16.2545 4.34672C15.9705 4.34919 15.6988 4.46312 15.4979 4.66398C15.2971 4.86484 15.1831 5.13655 15.1807 5.4206C15.1782 5.70465 15.2874 5.9783 15.4847 6.18262L21.2188 11.9167H2.16732C1.88 11.9167 1.60445 12.0308 1.40129 12.234C1.19812 12.4372 1.08398 12.7127 1.08398 13C1.08398 13.2874 1.19812 13.5629 1.40129 13.7661C1.60445 13.9692 1.88 14.0834 2.16732 14.0834H21.2188L15.4847 19.8175C15.3813 19.9174 15.2987 20.0369 15.242 20.1691C15.1852 20.3013 15.1553 20.4434 15.154 20.5873C15.1528 20.7311 15.1802 20.8738 15.2347 21.0069C15.2891 21.14 15.3696 21.261 15.4713 21.3627C15.573 21.4644 15.694 21.5449 15.8271 21.5993C15.9603 21.6538 16.1029 21.6812 16.2468 21.68C16.3906 21.6787 16.5328 21.6488 16.6649 21.5921C16.7971 21.5353 16.9166 21.4528 17.0166 21.3493L24.5999 13.766C24.803 13.5628 24.9171 13.2873 24.9171 13C24.9171 12.7128 24.803 12.4373 24.5999 12.2341Z" fill="white"/>
</svg>
