<svg width="30" height="30" viewBox="0 0 30 30" fill="none" xmlns="http://www.w3.org/2000/svg">
<g clip-path="url(#clip0_1_776)">
<path d="M13.1309 17.8098L18.0102 14.9996L13.1309 12.1895V17.8098Z" fill="white"/>
<path d="M15 0C6.71701 0 0 6.71701 0 15C0 23.283 6.71701 30 15 30C23.283 30 30 23.283 30 15C30 6.71701 23.283 0 15 0ZM24.3727 15.0154C24.3727 15.0154 24.3727 18.0574 23.9868 19.5243C23.7705 20.3272 23.1374 20.9603 22.3345 21.1764C20.8677 21.5625 15 21.5625 15 21.5625C15 21.5625 9.14772 21.5625 7.66547 21.161C6.86256 20.945 6.22945 20.3116 6.01318 19.5087C5.62705 18.0574 5.62705 15 5.62705 15C5.62705 15 5.62705 11.9582 6.01318 10.4912C6.22928 9.68836 6.87791 9.03967 7.66553 8.82363C9.1323 8.4375 15 8.4375 15 8.4375C15 8.4375 20.8676 8.4375 22.3345 8.83898C23.1374 9.05502 23.7705 9.68836 23.9868 10.4913C24.3883 11.9582 24.3727 15.0153 24.3727 15.0153L24.3727 15.0154Z" fill="white"/>
</g>
<defs>
<clipPath id="clip0_1_776">
<rect width="30" height="30" fill="white"/>
</clipPath>
</defs>
</svg>
